<svg height="240.565" viewBox="0 0 267.478 240.565" width="267.478" xmlns="http://www.w3.org/2000/svg" xmlns:xlink="http://www.w3.org/1999/xlink"><linearGradient id="a" gradientUnits="objectBoundingBox" x1=".105" x2=".854" y1=".745" y2=".287"><stop offset="0" stop-color="#3c7df3"/><stop offset=".461" stop-color="#3892f4"/><stop offset="1" stop-color="#31baf7"/></linearGradient><circle cx="4.945" cy="98.223" fill="#242837" r="4.945"/><circle cx="106.404" cy="106.404" fill="url(#a)" r="106.404" transform="translate(54.671)"/><g fill="#242837"><path d="m58.261 64.5a4.625 4.625 0 0 1 -4.626-4.626v-9.248a4.626 4.626 0 1 1 9.252 0v9.252a4.625 4.625 0 0 1 -4.626 4.622z" transform="translate(-31.348 -46)"/><path d="m58.261 88.5a4.625 4.625 0 0 1 -4.626-4.626v-9.248a4.626 4.626 0 0 1 9.252 0v9.252a4.625 4.625 0 0 1 -4.626 4.622z" transform="translate(-31.348 -42.243)"/><path d="m51.514 71.252h-9.253a4.626 4.626 0 0 1 0-9.252h9.252a4.626 4.626 0 0 1 0 9.252z" transform="translate(-33.853 -43.495)"/><path d="m75.514 71.252h-9.253a4.626 4.626 0 0 1 0-9.252h9.252a4.626 4.626 0 0 1 0 9.252z" transform="translate(-30.096 -43.495)"/><path d="m237.827 254.384a16.192 16.192 0 1 1 16.192-16.192 16.211 16.211 0 0 1 -16.192 16.192zm0-23.131a6.939 6.939 0 1 0 6.939 6.939 6.946 6.946 0 0 0 -6.939-6.94z" transform="translate(-5.046 -18.445)"/></g><path d="m134.965 211.153v51.507a15.573 15.573 0 0 1 -15.573 15.573 15.328 15.328 0 0 1 -14.275-9.335c-7.122-17.506-8.694-42.2-8.814-60.277a59.246 59.246 0 0 0 -2.24-13.756c-3.333-12.714-9.763-24.271-17.409-34.965a57.052 57.052 0 0 1 80.246-79.121 6 6 0 0 0 7.1 0 57.06 57.06 0 0 1 80.248 79.121c-7.643 10.694-14.074 22.252-17.407 34.967a59.3 59.3 0 0 0 -2.24 13.755c-.12 18.062-1.691 42.742-8.8 60.245a15.373 15.373 0 0 1 -14.322 9.367 15.626 15.626 0 0 1 -15.625-15.625v-51.456a25.444 25.444 0 1 0 -50.888 0z" fill="#fff" transform="translate(-29.406 -42.295)"/><path d="m202.106 283.486a20.276 20.276 0 0 1 -20.254-20.251v-51.456a20.818 20.818 0 1 0 -41.636 0v51.507a20.223 20.223 0 0 1 -20.2 20.2 19.83 19.83 0 0 1 -18.564-12.218c-5.892-14.493-8.973-35.349-9.153-61.987a54.11 54.11 0 0 0 -2.088-12.613c-2.81-10.719-8.272-21.659-16.7-33.45a61.679 61.679 0 0 1 86.759-85.538 1.369 1.369 0 0 0 1.613 0 61.687 61.687 0 0 1 86.756 85.536c-8.426 11.793-13.888 22.733-16.694 33.45a53.948 53.948 0 0 0 -2.092 12.616c-.18 26.622-3.257 47.466-9.139 61.955a19.876 19.876 0 0 1 -18.608 12.251zm-41.071-101.777a30.105 30.105 0 0 1 30.071 30.071v51.455a11.012 11.012 0 0 0 11 11 10.8 10.8 0 0 0 10.034-6.483c5.368-13.206 8.295-33.445 8.461-58.532a62.727 62.727 0 0 1 2.394-14.9c3.095-11.824 9.022-23.757 18.116-36.481a52.426 52.426 0 0 0 -73.734-72.71 10.715 10.715 0 0 1 -12.6 0 52.435 52.435 0 0 0 -73.734 72.711c9.094 12.722 15.021 24.656 18.121 36.481a62.832 62.832 0 0 1 2.389 14.9c.168 25.1 3.1 45.352 8.475 58.565a10.749 10.749 0 0 0 9.989 6.451 10.959 10.959 0 0 0 10.947-10.947v-51.51a30.1 30.1 0 0 1 30.069-30.071z" fill="#242837" transform="translate(-30.031 -42.921)"/><circle cx="158.761" cy="80.959" fill="#242837" r="5.334"/><circle cx="93.994" cy="80.959" fill="#242837" r="5.334"/><path d="m154.383 155.151a16.239 16.239 0 0 1 -4.676-.692 4.627 4.627 0 1 1 2.655-8.864 6.938 6.938 0 0 0 8.638-4.649 4.627 4.627 0 0 1 8.864 2.655 16.221 16.221 0 0 1 -15.485 11.549z" fill="#242837" transform="translate(-16.824 -31.652)"/><circle cx="211.963" cy="60.141" fill="#63c132" r="39.788"/><path d="m223.647 148.427a44.414 44.414 0 1 1 44.415-44.414 44.464 44.464 0 0 1 -44.415 44.414zm0-79.576a35.162 35.162 0 1 0 35.163 35.162 35.2 35.2 0 0 0 -35.163-35.163z" fill="#242837" transform="translate(-11.684 -43.871)"/><path d="m216.283 118.516a4.616 4.616 0 0 1 -3.212-1.3l-10.02-9.663a4.626 4.626 0 1 1 6.424-6.659l6.75 6.51 18.275-18.274a4.626 4.626 0 1 1 6.542 6.542l-21.491 21.489a4.61 4.61 0 0 1 -3.271 1.355z" fill="#242837" transform="translate(-8.177 -39.46)"/></svg>