<svg xmlns="http://www.w3.org/2000/svg" xmlns:xlink="http://www.w3.org/1999/xlink" width="57" height="57" viewBox="0 0 57 57"><defs><clipPath id="a"><path d="M0-682.665H57v57H0Z" transform="translate(0 682.665)"/></clipPath></defs><g transform="translate(0 682.665)"><g transform="translate(0 -682.665)"><g clip-path="url(#a)"><g transform="translate(1.241 10.131)"><path d="M-449.526-85.58c-.764.416-1.232,1.37-.217,3.408,1.6,3.215,2.753,2.339,3.949,1.615.073-.044.144-.089.21-.134l.028.034a3.1,3.1,0,0,0-.9,1.432c-.5,1.506-.256,5.45,4.369,6.286a3.343,3.343,0,0,0,.56.052l.042.107a4.368,4.368,0,0,0-.859.381c-2.078,1.2-.724,3.707,0,4.682a3.519,3.519,0,0,0,5.179.931,3.228,3.228,0,0,0,.98-.894,34.417,34.417,0,0,1,.354,4.891,6.107,6.107,0,0,1-6.061,6.151,6.107,6.107,0,0,1-6.062-6.151c0-8.756-6.787-17.391-15.157-17.391s-15.243,8.634-15.243,17.391a6.106,6.106,0,0,1-6.061,6.151,6.107,6.107,0,0,1-6.062-6.151l.317-4.767a3.377,3.377,0,0,0,.888.77,3.519,3.519,0,0,0,5.179-.931c.724-.975,2.078-3.486,0-4.682a4.142,4.142,0,0,0-1.262-.484l.014-.034a3.086,3.086,0,0,0,.991-.021c4.625-.836,4.872-4.78,4.368-6.286a3.284,3.284,0,0,0-.718-1.258l.06-.071c1.193.723,2.346,1.592,3.943-1.619,1.08-2.168.481-3.109-.366-3.481,1.5.527,4.714.979,3.729-3.4,0,0,3.805.643,4.066-3.16,0,0,3.6,3.223,6.048-1.161,0,0,2.263,4.233,5.566,1.161,0,0,.41,4.958,4.564,2.773C-453.089-89.443-455.7-85.3-449.526-85.58Z" transform="translate(490.479 93.377)" fill="rgba(0,0,0,0)"/><path d="M-463.221-94.277h.012a.894.894,0,0,1,.359.079.9.9,0,0,1,.278.195h0a.9.9,0,0,1,.149.206c.279.508,1.235,1.8,2.376,1.8a2.73,2.73,0,0,0,1.781-.877.9.9,0,0,1,.938-.18.9.9,0,0,1,.572.765c0,.022.24,2.5,1.764,2.5a3.329,3.329,0,0,0,1.485-.453.9.9,0,0,1,1.08.185.9.9,0,0,1,.1,1.091c-.174.282-.609,1.217-.309,1.756.262.471,1.183.74,2.525.74.173,0,.357,0,.545-.013a.9.9,0,0,1,.908.657.9.9,0,0,1-.436,1.032.556.556,0,0,0-.317.445,3.149,3.149,0,0,0,.475,1.771c.569,1.144,1.119,1.8,1.509,1.8a2.586,2.586,0,0,0,1.025-.465l.143-.087.006,0c.054-.032.109-.067.168-.107a.9.9,0,0,1,1.2.174l.028.034a.9.9,0,0,1-.115,1.262,2.235,2.235,0,0,0-.627,1.027,4.113,4.113,0,0,0,.421,3.112,4.47,4.47,0,0,0,3.254,2,2.432,2.432,0,0,0,.405.037.9.9,0,0,1,.831.568l.042.107a.9.9,0,0,1-.024.718.9.9,0,0,1-.542.472,3.489,3.489,0,0,0-.682.3,1.138,1.138,0,0,0-.626.785,3.838,3.838,0,0,0,.9,2.579,2.748,2.748,0,0,0,2.176,1.315,3.477,3.477,0,0,0,1.8-.611,2.372,2.372,0,0,0,.713-.638.9.9,0,0,1,.947-.369.9.9,0,0,1,.687.748,35.311,35.311,0,0,1,.363,5.019,7.014,7.014,0,0,1-6.961,7.051,7.015,7.015,0,0,1-6.962-7.051,17.987,17.987,0,0,0-4.228-11.4,13.2,13.2,0,0,0-10.03-5.092,13.31,13.31,0,0,0-10.075,5.094,17.905,17.905,0,0,0-4.268,11.4,7.014,7.014,0,0,1-6.961,7.051,7.015,7.015,0,0,1-6.962-7.051q0-.03,0-.06l.317-4.767a.9.9,0,0,1,.634-.8.9.9,0,0,1,.974.308,2.514,2.514,0,0,0,.656.56,3.476,3.476,0,0,0,1.8.61,2.747,2.747,0,0,0,2.176-1.314,3.838,3.838,0,0,0,.9-2.58,1.139,1.139,0,0,0-.627-.786,3.267,3.267,0,0,0-.989-.382.9.9,0,0,1-.621-.463.9.9,0,0,1-.031-.774l.014-.034a.9.9,0,0,1,.957-.536,2.2,2.2,0,0,0,.7-.016,4.471,4.471,0,0,0,3.255-2,4.113,4.113,0,0,0,.421-3.111,2.418,2.418,0,0,0-.513-.919.9.9,0,0,1-.037-1.206l.06-.071a.9.9,0,0,1,1.152-.187l.138.084a2.585,2.585,0,0,0,1.024.465c.39,0,.94-.656,1.509-1.8.592-1.188.505-1.731.441-1.909a.587.587,0,0,0-.363-.347.9.9,0,0,1-.475-1.155.9.9,0,0,1,1.136-.518,4.611,4.611,0,0,0,1.456.276,1.227,1.227,0,0,0,1-.347,2.975,2.975,0,0,0,.1-2.286.9.9,0,0,1,.225-.816.9.9,0,0,1,.8-.268h0a3.349,3.349,0,0,0,.461.029,2.277,2.277,0,0,0,2.557-2.362.9.9,0,0,1,.559-.772.9.9,0,0,1,.939.163,3.913,3.913,0,0,0,2.223.912c.946,0,1.742-.6,2.433-1.831a.9.9,0,0,1,.167-.22.9.9,0,0,1,.261-.175A.894.894,0,0,1-463.221-94.277Zm3.173,4.079a4.316,4.316,0,0,1-3.15-1.617,4.144,4.144,0,0,1-3.247,1.641,4.955,4.955,0,0,1-2.207-.568,3.731,3.731,0,0,1-1.529,1.953,4.59,4.59,0,0,1-2.1.657,3.665,3.665,0,0,1-.625,2.684,2.885,2.885,0,0,1-2.322,1.021,5.1,5.1,0,0,1-.667,2.656c-.595,1.2-1.562,2.783-3.1,2.8a6.014,6.014,0,0,1-.718,4.063,5.8,5.8,0,0,1-3.046,2.468,2.814,2.814,0,0,1,.6,1.244,5.614,5.614,0,0,1-1.218,4.019,4.5,4.5,0,0,1-3.621,2.042,4.984,4.984,0,0,1-2.383-.666l-.2,3.044a5.212,5.212,0,0,0,5.162,5.222,5.212,5.212,0,0,0,5.161-5.251,19.732,19.732,0,0,1,4.7-12.562,17.046,17.046,0,0,1,5.118-4.142,13.622,13.622,0,0,1,6.328-1.587,13.546,13.546,0,0,1,6.316,1.588,16.9,16.9,0,0,1,5.09,4.143,19.814,19.814,0,0,1,4.652,12.559,5.213,5.213,0,0,0,5.162,5.251,5.212,5.212,0,0,0,5.161-5.251c0-1.031-.05-2.074-.149-3.118a5.1,5.1,0,0,1-2.565.768,4.5,4.5,0,0,1-3.622-2.042,5.613,5.613,0,0,1-1.218-4.018,2.814,2.814,0,0,1,.6-1.244,5.8,5.8,0,0,1-3.046-2.467,6.013,6.013,0,0,1-.718-4.063c-1.537-.014-2.5-1.6-3.1-2.8a4.825,4.825,0,0,1-.642-2.853q.008-.048.017-.1a3.653,3.653,0,0,1-3.04-1.62,2.8,2.8,0,0,1-.307-1.678,3.258,3.258,0,0,1-3.521-2.17c-.074-.167-.137-.334-.191-.5A3.781,3.781,0,0,1-460.048-90.2Z" transform="translate(490.479 93.377)" fill="#242837"/></g><g transform="translate(1.113 30.556)"><path d="M-71.487-57.461a3.519,3.519,0,0,1-5.179.93c-2.763-1.727-.543-4.215.5-5.081a3.935,3.935,0,0,1,4.676-.531C-69.409-60.948-70.763-58.436-71.487-57.461Z" transform="translate(78 62.696)" fill="rgba(0,0,0,0)"/><path d="M-74.385-54.884a5.223,5.223,0,0,1-2.757-.885,3.294,3.294,0,0,1-1.751-2.59c-.126-1.9,1.619-3.5,2.157-3.947a5.253,5.253,0,0,1,3.3-1.291,4.774,4.774,0,0,1,2.4.673,2.954,2.954,0,0,1,1.492,1.979,5.613,5.613,0,0,1-1.218,4.02A4.5,4.5,0,0,1-74.385-54.884Zm.95-6.912a3.486,3.486,0,0,0-2.153.877A3.631,3.631,0,0,0-77.1-58.478c.011.159.043.642.909,1.183a3.476,3.476,0,0,0,1.8.611A2.749,2.749,0,0,0-72.209-58a3.838,3.838,0,0,0,.9-2.58,1.139,1.139,0,0,0-.627-.786A3,3,0,0,0-73.436-61.8Z" transform="translate(78 62.696)" fill="#242837"/></g><g transform="translate(4.332 22.335)"><path d="M-81.293-21.381c.5,1.506.255,5.45-4.369,6.286-1.974.357-4.306-1.12-2.216-5.329C-86.658-22.884-82.508-25.023-81.293-21.381Z" transform="translate(88.699 23.329)" fill="rgba(0,0,0,0)"/><path d="M-83.667-24.229a3.159,3.159,0,0,1,1.933.632,3.906,3.906,0,0,1,1.3,1.931,5.892,5.892,0,0,1-.581,4.6A6.194,6.194,0,0,1-85.5-14.209a4.109,4.109,0,0,1-.729.066,3.267,3.267,0,0,1-2.867-1.49c-.548-.884-.921-2.5.414-5.19A6.26,6.26,0,0,1-83.667-24.229Zm-2.564,8.285a2.3,2.3,0,0,0,.409-.037,4.471,4.471,0,0,0,3.254-2,4.114,4.114,0,0,0,.422-3.112c-.445-1.333-1.254-1.333-1.52-1.333a4.506,4.506,0,0,0-3.406,2.4c-.754,1.519-.93,2.742-.5,3.442A1.558,1.558,0,0,0-86.231-15.944Z" transform="translate(88.699 23.329)" fill="#242837"/></g><g transform="translate(9.643 17.636)"><path d="M-41.441-.017c-1.6.049-6.039,3.08-2.345,5.314,1.2.723,2.349,1.6,3.95-1.615S-40.325-.051-41.441-.017Z" transform="translate(45.216 0.018)" fill="rgba(0,0,0,0)"/><path d="M-41.341-.918A2.959,2.959,0,0,1-38.719.325c.574.926.469,2.191-.312,3.758-.6,1.2-1.572,2.8-3.12,2.8a3.785,3.785,0,0,1-1.962-.728l-.138-.084c-2.01-1.215-1.974-2.677-1.774-3.44A4.874,4.874,0,0,1-44.056.121,5.324,5.324,0,0,1-41.468-.916Zm-.81,6c.39,0,.94-.656,1.509-1.8.457-.917.6-1.668.393-2.009-.19-.306-.766-.4-1.164-.389a4.17,4.17,0,0,0-2.871,2.2c-.048.184-.195.742.964,1.443l.145.088A2.586,2.586,0,0,0-42.151,5.08Z" transform="translate(45.216 0.018)" fill="#242837"/></g><g transform="translate(48.268 30.556)"><path d="M-12.144-57.461a3.519,3.519,0,0,0,5.179.93c2.763-1.727.543-4.215-.5-5.081a3.934,3.934,0,0,0-4.676-.531C-14.223-60.948-12.868-58.436-12.144-57.461Z" transform="translate(13.251 62.696)" fill="rgba(0,0,0,0)"/><path d="M-9.246-54.884h0a4.5,4.5,0,0,1-3.621-2.041,5.613,5.613,0,0,1-1.218-4.02,2.954,2.954,0,0,1,1.492-1.979,4.774,4.774,0,0,1,2.4-.673,5.253,5.253,0,0,1,3.3,1.291c.538.445,2.283,2.046,2.157,3.947a3.294,3.294,0,0,1-1.751,2.59A5.222,5.222,0,0,1-9.246-54.884ZM-10.2-61.8a3,3,0,0,0-1.5.433,1.138,1.138,0,0,0-.627.786,3.838,3.838,0,0,0,.9,2.58,2.749,2.749,0,0,0,2.176,1.314h0a3.476,3.476,0,0,0,1.8-.611c.866-.541.9-1.024.909-1.183a3.632,3.632,0,0,0-1.508-2.441A3.486,3.486,0,0,0-10.2-61.8Z" transform="translate(13.251 62.696)" fill="#242837"/></g><g transform="translate(45.078 22.335)"><path d="M-2.022-21.381c-.5,1.506-.255,5.45,4.369,6.286,1.974.357,4.306-1.12,2.216-5.329C3.343-22.884-.807-25.023-2.022-21.381Z" transform="translate(2.206 23.329)" fill="rgba(0,0,0,0)"/><path d="M.352-24.229h0a6.261,6.261,0,0,1,5.018,3.4c1.335,2.689.962,4.307.414,5.19a3.267,3.267,0,0,1-2.867,1.49,4.108,4.108,0,0,1-.729-.066,6.194,6.194,0,0,1-4.482-2.857,5.892,5.892,0,0,1-.581-4.6,3.906,3.906,0,0,1,1.3-1.931A3.158,3.158,0,0,1,.352-24.229Zm2.565,8.285a1.558,1.558,0,0,0,1.338-.639c.434-.7.258-1.922-.5-3.442a4.506,4.506,0,0,0-3.406-2.4c-.266,0-1.076,0-1.52,1.333a4.114,4.114,0,0,0,.422,3.112,4.471,4.471,0,0,0,3.254,2A2.3,2.3,0,0,0,2.916-15.944Z" transform="translate(2.206 23.329)" fill="#242837"/></g><g transform="translate(41.395 17.636)"><path d="M-24-.017c1.6.049,6.039,3.08,2.345,5.314-1.2.723-2.349,1.6-3.95-1.615S-25.117-.051-24-.017Z" transform="translate(26.188 0.018)" fill="rgba(0,0,0,0)"/><path d="M-24.1-.918l.127,0A5.324,5.324,0,0,1-21.387.121a4.873,4.873,0,0,1,1.97,2.507c.2.763.236,2.225-1.774,3.44l-.138.084a3.785,3.785,0,0,1-1.962.728c-1.549,0-2.523-1.6-3.12-2.8-.781-1.568-.886-2.832-.312-3.759A2.959,2.959,0,0,1-24.1-.918Zm.81,6a2.586,2.586,0,0,0,1.024-.465l.145-.088c1.159-.7,1.012-1.259.964-1.443a4.17,4.17,0,0,0-2.871-2.2c-.4-.012-.975.083-1.164.389-.211.34-.064,1.091.393,2.009C-24.231,4.424-23.681,5.08-23.291,5.08Z" transform="translate(26.188 0.018)" fill="#242837"/></g></g></g></g></svg>