<svg height="48.867" viewBox="0 0 38.075 48.867" width="38.075" xmlns="http://www.w3.org/2000/svg"><g fill="#242837"><path d="m11 22.122a9.954 9.954 0 0 0 3.439 8.38l2.621 19.465a4.968 4.968 0 0 0 5 4.66 4.8 4.8 0 0 0 4.74-3.945l3.032-14.018a.172.172 0 0 1 .344 0l3.024 14.018a4.977 4.977 0 0 0 3.131 3.674 5.041 5.041 0 0 0 1.629.271 4.941 4.941 0 0 0 4.95-4.6l2.637-19.527a9.954 9.954 0 0 0 3.453-8.378 10.19 10.19 0 0 0 -10.285-9.122h-.76a18.606 18.606 0 0 0 -6.941 1.339 2.715 2.715 0 0 1 -2.036 0c-.389-.154-.778-.3-1.176-.425a.9.9 0 0 0 -1 .326l-1.882 2.516-2.163.769-2.425-.814a.9.9 0 0 0 -.579 0l-1.9.633-.9-2.226a.905.905 0 0 0 -1.33-.425 9.782 9.782 0 0 0 -4.623 7.429zm4.679-5.3.778 1.946a.9.9 0 0 0 1.131.525l2.425-.814 2.425.814a.9.9 0 0 0 .579 0l2.715-.9a.95.95 0 0 0 .434-.317l1.665-2.217.452.172a4.6 4.6 0 0 0 3.366 0 16.778 16.778 0 0 1 6.307-1.213h.76a8.371 8.371 0 0 1 8.479 7.457 8.144 8.144 0 0 1 -3.077 7.022.851.851 0 0 0 -.335.588l-2.715 19.901a3.158 3.158 0 0 1 -3.122 3.032 3.394 3.394 0 0 1 -1.041-.172 3.14 3.14 0 0 1 -1.928-2.346l-3.032-14a1.988 1.988 0 0 0 -3.891-.009l-3.031 14.009a3.122 3.122 0 0 1 -1.923 2.336 3.24 3.24 0 0 1 -1.05.181 3.185 3.185 0 0 1 -3.15-3.022l-2.718-19.909a.9.9 0 0 0 -.326-.588 8.144 8.144 0 0 1 -3.05-7.031 7.909 7.909 0 0 1 2.9-5.448z" transform="translate(-10.962 -5.76)"/><path d="m41.123 27.9a.882.882 0 0 0 .9.054l3.62-1.81a.851.851 0 0 0 .4-.4l.9-1.81a.9.9 0 0 0 .054-.7l-.9-2.715a.9.9 0 0 0 -.715-.606l-5.43-.9a.9.9 0 0 0 -1 1.185l.769 2.289-1.566 2.353a.9.9 0 0 0 .253 1.249zm.452-5.565-.434-1.285 3.412.57.615 1.81-.606 1.2-2.878 1.448-1.52-1.023 1.3-1.964a.9.9 0 0 0 .154-.76z" transform="translate(-13.533 -6.33)"/><path d="m21 5h1.81v3.62h-1.81z" transform="translate(-11.916 -5)"/><path d="m0 0h3.647v1.81h-3.647z" transform="matrix(.712 -.702 .702 .712 12.188 4.789)"/><path d="m0 0h1.81v3.647h-1.81z" transform="matrix(.702 -.712 .712 .702 3.92 3.517)"/></g></svg>