<svg xmlns="http://www.w3.org/2000/svg" xmlns:xlink="http://www.w3.org/1999/xlink" width="282.537" height="278.676" viewBox="0 0 282.537 278.676"><defs><linearGradient id="a" x1="0.065" y1="0.773" x2="0.791" y2="0.36" gradientUnits="objectBoundingBox"><stop offset="0" stop-color="#3c7df3"/><stop offset="0.461" stop-color="#3892f4"/><stop offset="1" stop-color="#31baf7"/></linearGradient></defs><circle cx="5.049" cy="5.049" r="5.049" transform="translate(0 81.065)" fill="#242837"/><circle cx="108.636" cy="108.636" r="108.636" transform="translate(65.264 9.447)" fill="url(#a)"/><g transform="translate(32.201)"><path d="M78.358,50.893a4.722,4.722,0,0,1-4.723-4.723V36.723a4.723,4.723,0,1,1,9.447,0V46.17A4.722,4.722,0,0,1,78.358,50.893Z" transform="translate(-54.742 -32)" fill="#242837"/><path d="M78.358,74.893a4.722,4.722,0,0,1-4.723-4.723V60.723a4.723,4.723,0,1,1,9.447,0V70.17A4.722,4.722,0,0,1,78.358,74.893Z" transform="translate(-54.742 -27.66)" fill="#242837"/><path d="M71.8,57.447H62.358a4.723,4.723,0,1,1,0-9.447H71.8a4.723,4.723,0,0,1,0,9.447Z" transform="translate(-57.635 -29.107)" fill="#242837"/><path d="M95.8,57.447H86.358a4.723,4.723,0,0,1,0-9.447H95.8a4.723,4.723,0,0,1,0,9.447Z" transform="translate(-53.295 -29.107)" fill="#242837"/><path d="M234.167,257.063A16.532,16.532,0,1,1,250.7,240.532,16.551,16.551,0,0,1,234.167,257.063Zm0-23.617a7.085,7.085,0,1,0,7.085,7.085A7.092,7.092,0,0,0,234.167,233.447Z" transform="translate(-28.702 2.719)" fill="#242837"/><circle cx="5.049" cy="5.049" r="5.049" transform="translate(227.581 180.255)" fill="#242837"/></g><g transform="translate(32.689 56.282)"><path d="M132.411,228.122V280.71a15.9,15.9,0,0,1-15.9,15.9,15.649,15.649,0,0,1-14.575-9.53c-7.272-17.873-8.876-43.09-9-61.541a60.471,60.471,0,0,0-2.287-14.044c-3.4-12.982-9.969-24.782-17.773-35.7a58.249,58.249,0,0,1,81.928-80.782,6.128,6.128,0,0,0,7.254,0,58.257,58.257,0,0,1,81.928,80.782c-7.8,10.918-14.37,22.719-17.773,35.7a60.542,60.542,0,0,0-2.287,14.045c-.123,18.441-1.726,43.639-8.986,61.509a15.7,15.7,0,0,1-14.622,9.564,15.954,15.954,0,0,1-15.953-15.953V228.122a25.978,25.978,0,1,0-51.955,0Z" transform="translate(-57.326 -78.94)" fill="#fff"/><path d="M201.045,302.057a20.7,20.7,0,0,1-20.679-20.676V228.845a21.255,21.255,0,0,0-42.51,0v52.588a20.647,20.647,0,0,1-20.623,20.623A20.246,20.246,0,0,1,98.28,289.583c-6.015-14.8-9.161-36.091-9.345-63.288A55.245,55.245,0,0,0,86.8,213.417c-2.869-10.944-8.445-22.113-17.049-34.152a62.974,62.974,0,0,1,88.576-87.332,1.4,1.4,0,0,0,1.647,0,62.982,62.982,0,0,1,88.576,87.331c-8.6,12.041-14.179,23.21-17.044,34.152a55.08,55.08,0,0,0-2.136,12.88c-.184,27.18-3.325,48.462-9.331,63.255a20.293,20.293,0,0,1-19,12.508ZM159.112,198.144a30.737,30.737,0,0,1,30.7,30.7V281.38a11.243,11.243,0,0,0,11.232,11.23,11.027,11.027,0,0,0,10.245-6.619c5.48-13.483,8.469-34.147,8.639-59.761a64.043,64.043,0,0,1,2.444-15.213c3.16-12.072,9.212-24.255,18.5-37.247a53.526,53.526,0,0,0-75.281-74.235,10.94,10.94,0,0,1-12.865,0,53.536,53.536,0,0,0-75.281,74.236c9.285,12.989,15.337,25.173,18.5,37.247a64.151,64.151,0,0,1,2.44,15.21c.171,25.628,3.165,46.3,8.653,59.794a10.974,10.974,0,0,0,10.2,6.587,11.189,11.189,0,0,0,11.177-11.177V228.845a30.736,30.736,0,0,1,30.7-30.7Z" transform="translate(-58.048 -79.663)" fill="#242837"/></g><circle cx="5.446" cy="5.446" r="5.446" transform="translate(156.646 110.275)" fill="#242837"/><circle cx="5.446" cy="5.446" r="5.446" transform="translate(90.52 110.275)" fill="#242837"/><path d="M150.55,169.519a16.579,16.579,0,0,1-4.774-.706,4.724,4.724,0,1,1,2.711-9.05,7.084,7.084,0,0,0,8.823-4.747,4.724,4.724,0,0,1,9.05,2.711,16.561,16.561,0,0,1-15.81,11.792Z" transform="translate(-10.104 -10.365)" fill="#242837"/><g transform="translate(159.731 14.17)"><circle cx="49.595" cy="49.595" r="49.595" transform="translate(4.723 4.723)" fill="#f3f3f3"/><path d="M219.953,152.636a54.318,54.318,0,1,1,54.318-54.318,54.38,54.38,0,0,1-54.318,54.318Zm0-99.19a44.871,44.871,0,1,0,44.872,44.872A44.923,44.923,0,0,0,219.953,53.447Z" transform="translate(-165.635 -44)" fill="#242837"/></g><g transform="translate(188.071 42.51)"><path d="M241.591,86.893H222.7V68h-14.17V86.893H189.635v14.17h18.893v18.893H222.7V101.063h18.893Z" transform="translate(-189.635 -68)" fill="#242837"/></g></svg>