<svg height="191.839" viewBox="0 0 198.065 191.839" width="198.065" xmlns="http://www.w3.org/2000/svg" xmlns:xlink="http://www.w3.org/1999/xlink"><linearGradient id="a" gradientUnits="objectBoundingBox" x1=".5" x2=".5" y2="1"><stop offset="0" stop-color="#3c7df3"/><stop offset=".461" stop-color="#3892f4"/><stop offset="1" stop-color="#31baf7"/></linearGradient><circle cx="3.662" cy="72.733" fill="#242837" r="3.662"/><circle cx="78.791" cy="78.791" fill="url(#a)" r="78.791" transform="translate(40.483)"/><g fill="#242837"><path d="m57.061 51.7a3.425 3.425 0 0 1 -3.426-3.426v-6.848a3.426 3.426 0 0 1 6.851 0v6.851a3.425 3.425 0 0 1 -3.425 3.423z" transform="translate(-37.131 -38)"/><path d="m57.061 75.7a3.425 3.425 0 0 1 -3.426-3.426v-6.848a3.426 3.426 0 0 1 6.851 0v6.851a3.425 3.425 0 0 1 -3.425 3.423z" transform="translate(-37.131 -41.446)"/><path d="m47.912 60.851h-6.851a3.426 3.426 0 1 1 0-6.851h6.851a3.426 3.426 0 1 1 0 6.851z" transform="translate(-34.834 -40.297)"/><path d="m71.912 60.851h-6.851a3.426 3.426 0 1 1 0-6.851h6.851a3.426 3.426 0 1 1 0 6.851z" transform="translate(-38.28 -40.297)"/><path d="m233.625 237.98a11.99 11.99 0 1 1 11.99-11.99 12 12 0 0 1 -11.99 11.99zm0-17.128a5.139 5.139 0 1 0 5.139 5.139 5.144 5.144 0 0 0 -5.139-5.14z" transform="translate(-61.252 -63.27)"/><circle cx="192.075" cy="110.416" r="3.662"/></g><path d="m113.079 182.435v38.141a11.532 11.532 0 0 1 -11.532 11.532 11.35 11.35 0 0 1 -10.571-6.913c-5.273-12.963-6.438-31.252-6.527-44.634-.04-6.063-2.929-15.106-5.293-21.506a39.636 39.636 0 0 0 -7.111-11.819 42.248 42.248 0 0 1 57.275-61.344 4.446 4.446 0 0 0 5.262 0 42.253 42.253 0 0 1 59.418 58.591c-5.659 7.918-10.422 16.478-12.89 25.892a43.91 43.91 0 0 0 -1.659 10.186c-.089 13.375-1.252 31.649-6.517 44.61a11.384 11.384 0 0 1 -10.605 6.936 11.571 11.571 0 0 1 -11.57-11.57v-38.1a18.841 18.841 0 0 0 -37.683 0z" fill="#fff" transform="translate(-38.339 -43.694)"/><path d="m161.759 234.959a15.014 15.014 0 0 1 -15-15v-38.1a15.416 15.416 0 1 0 -30.831 0v38.141a14.975 14.975 0 0 1 -14.957 14.957 14.683 14.683 0 0 1 -13.746-9.049c-4.363-10.73-6.644-26.174-6.778-45.9-.03-4.331-1.834-11.555-5.082-20.342a36.267 36.267 0 0 0 -6.511-10.791 45.674 45.674 0 0 1 61.926-66.312 1.014 1.014 0 0 0 1.195 0 45.679 45.679 0 0 1 64.241 63.337c-6.239 8.733-10.284 16.834-12.362 24.769a39.947 39.947 0 0 0 -1.549 9.342c-.134 19.715-2.412 35.148-6.767 45.875a14.72 14.72 0 0 1 -13.779 9.073zm-30.413-75.365a22.293 22.293 0 0 1 22.267 22.267v38.1a8.154 8.154 0 0 0 8.146 8.145 8 8 0 0 0 7.43-4.8c3.975-9.779 6.142-24.766 6.266-43.343a46.448 46.448 0 0 1 1.773-11.033c2.292-8.755 6.681-17.592 13.415-27.014a38.821 38.821 0 0 0 -54.6-53.841 7.934 7.934 0 0 1 -9.331 0 38.826 38.826 0 0 0 -52.629 56.371 43.174 43.174 0 0 1 7.717 12.854c2.485 6.731 5.46 16.126 5.5 22.67.124 18.587 2.3 33.583 6.276 43.365a7.961 7.961 0 0 0 7.4 4.779 8.115 8.115 0 0 0 8.104-8.114v-38.139a22.291 22.291 0 0 1 22.265-22.267z" fill="#242837" transform="translate(-37.765 -43.121)"/><path d="m155.965 115.308h-11.885a2.711 2.711 0 0 1 -2.712-2.712v-11.884a2.711 2.711 0 0 0 -2.712-2.712h-9a2.711 2.711 0 0 0 -2.712 2.712v11.888a2.711 2.711 0 0 1 -2.712 2.712h-11.884a2.711 2.711 0 0 0 -2.712 2.712v9a2.711 2.711 0 0 0 2.712 2.712h11.885a2.711 2.711 0 0 1 2.712 2.712v11.885a2.711 2.711 0 0 0 2.712 2.712h9a2.711 2.711 0 0 0 2.712-2.712v-11.89a2.711 2.711 0 0 1 2.712-2.712h11.885a2.711 2.711 0 0 0 2.712-2.712v-9a2.712 2.712 0 0 0 -2.712-2.712z" fill="#63c132" transform="translate(-40.547 -41.155)"/><path d="m137.539 148.81h-9a5.6 5.6 0 0 1 -5.6-5.6v-11.882l-11.711.173a5.6 5.6 0 0 1 -5.6-5.6v-9a5.6 5.6 0 0 1 5.6-5.6h11.883l-.167-11.701a5.6 5.6 0 0 1 5.6-5.6h9a5.6 5.6 0 0 1 5.6 5.6v11.885l11.71-.173a5.6 5.6 0 0 1 5.6 5.6v9a5.6 5.6 0 0 1 -5.6 5.6h-11.889l.172 11.712a5.6 5.6 0 0 1 -5.6 5.6zm-14.424-23.078a5.6 5.6 0 0 1 5.6 5.6v11.885l8.826-.173-.172-11.712a5.6 5.6 0 0 1 5.6-5.6h11.883l-.169-8.654h-11.717a5.6 5.6 0 0 1 -5.6-5.6v-11.878l-8.827.173.172 11.712a5.6 5.6 0 0 1 -5.6 5.6h-11.879l.172 8.827zm31.732-8.654h.028z" fill="#242837" transform="translate(-39.431 -40.04)"/><path d="m145.061 65.406a3.425 3.425 0 0 1 -3.426-3.426v-20.554a3.426 3.426 0 0 1 6.851 0v20.554a3.425 3.425 0 0 1 -3.425 3.426z" fill="#242837" transform="translate(-49.767 -38)"/><path d="m161.061 62.554a3.426 3.426 0 0 1 -2.422-5.848l13.7-13.7a3.425 3.425 0 0 1 4.844 4.844l-13.7 13.7a3.414 3.414 0 0 1 -2.422 1.004z" fill="#242837" transform="translate(-52.064 -38.574)"/><path d="m126.764 62.554a3.416 3.416 0 0 1 -2.422-1l-13.7-13.7a3.425 3.425 0 1 1 4.841-4.854l13.7 13.7a3.426 3.426 0 0 1 -2.422 5.848z" fill="#242837" transform="translate(-45.172 -38.574)"/></svg>