<svg height="69.385" viewBox="0 0 69.385 69.385" width="69.385" xmlns="http://www.w3.org/2000/svg" xmlns:xlink="http://www.w3.org/1999/xlink"><clipPath id="a"><path d="m0-682.665h69.385v69.385h-69.385z" transform="translate(0 682.665)"/></clipPath><g clip-path="url(#a)" fill="#242837"><path d="m-110.772-154.716h-9.45a4.087 4.087 0 0 1 -4.082-4.082v-11.453a4.087 4.087 0 0 1 4.082-4.082h2.608a1 1 0 0 1 1 1 1 1 0 0 1 -1 1h-2.608a2.085 2.085 0 0 0 -2.082 2.082v11.451a2.085 2.085 0 0 0 2.082 2.082h9.45a1 1 0 0 1 1 1 1 1 0 0 1 -1 1.002z" transform="translate(124.321 212.151)"/><path d="m-389.319 18.617h-46.992a1 1 0 0 1 -1-1 1 1 0 0 1 1-1h46.992a2.085 2.085 0 0 0 2.082-2.082v-11.453a2.085 2.085 0 0 0 -2.082-2.082h-2.645a1 1 0 0 1 -1-1 1 1 0 0 1 1-1h2.645a4.087 4.087 0 0 1 4.082 4.082v11.453a4.087 4.087 0 0 1 -4.082 4.082z" transform="translate(454.606 38.818)"/><path d="m4.973 1h-4.973a1 1 0 0 1 -1-1 1 1 0 0 1 1-1h4.973a1 1 0 0 1 1 1 1 1 0 0 1 -1 1z" transform="translate(42.346 38.818)"/><path d="m4.89 1h-4.89a1 1 0 0 1 -1-1 1 1 0 0 1 1-1h4.89a1 1 0 0 1 1 1 1 1 0 0 1 -1 1z" transform="translate(22.147 38.818)"/><path d="m-148.425 13.848q-.084 0-.169-.005a2.842 2.842 0 0 1 -2.642-2.655 55.46 55.46 0 0 0 -.756-5.882.912.912 0 0 0 -.251-.5.1.1 0 0 0 -.024 0 .1.1 0 0 0 -.023 0 .932.932 0 0 0 -.253.505 41.544 41.544 0 0 0 -.766 5.783 2.852 2.852 0 0 1 -2.732 2.734 2.815 2.815 0 0 1 -2.775-2.2c-.45-1.943-1-4.124-1.6-6.309a4.519 4.519 0 0 0 -.953-1.763 6.979 6.979 0 0 1 -1.713-4.909 6.957 6.957 0 0 1 2.148-4.727 6.971 6.971 0 0 1 4.807-1.964 6.943 6.943 0 0 1 3.1.7h.01.006a1.7 1.7 0 0 0 1.5 0h.006l.011-.005a6.934 6.934 0 0 1 3.1-.7 6.977 6.977 0 0 1 3.262.836 1 1 0 0 1 .405 1.355 1 1 0 0 1 -1.355.405 4.97 4.97 0 0 0 -2.324-.6 4.951 4.951 0 0 0 -2.213.5h-.006l-.011.005a3.688 3.688 0 0 1 -3.243 0l-.011-.005a4.958 4.958 0 0 0 -2.214-.5 5.056 5.056 0 0 0 -4.968 4.778 4.987 4.987 0 0 0 1.223 3.508 6.53 6.53 0 0 1 1.374 2.549c.6 2.209 1.164 4.417 1.621 6.384a.809.809 0 0 0 .779.65.862.862 0 0 0 .783-.867 42.228 42.228 0 0 1 .834-6.183 2.288 2.288 0 0 1 2.2-1.974 2.322 2.322 0 0 1 2.206 1.979 54.218 54.218 0 0 1 .821 6.268.849.849 0 0 0 .765.8c.532.031.782-.553.9-1.048.388-1.648.922-3.729 1.544-6.016a6.535 6.535 0 0 1 1.371-2.546 4.988 4.988 0 0 0 1.217-3.5 4.915 4.915 0 0 0 -.2-1.186 1 1 0 0 1 .673-1.244 1 1 0 0 1 1.244.673 6.916 6.916 0 0 1 .281 1.668 6.98 6.98 0 0 1 -1.7 4.9 4.524 4.524 0 0 0 -.952 1.76c-.616 2.265-1.144 4.322-1.527 5.949a2.959 2.959 0 0 1 -2.81 2.599z" transform="translate(207.242 34.899)"/><path d="m15.549-39.686h-12.375a3.86 3.86 0 0 1 -2.909-1.352l-.007-.009a6.977 6.977 0 0 1 -1.712-4.929c.009-.183.024-.367.047-.546a1 1 0 0 1 1.118-.866 1 1 0 0 1 .866 1.118c-.016.127-.027.258-.033.388a4.987 4.987 0 0 0 1.223 3.522l.009.01a1.862 1.862 0 0 0 1.4.66h12.375a1.853 1.853 0 0 0 1.4-.66l.02-.023a4.986 4.986 0 0 0 1.215-3.521 5.031 5.031 0 0 0 -4.786-4.748 4.956 4.956 0 0 0 -2.4.5l-.014.007a3.688 3.688 0 0 1 -3.245 0l-.011-.005h-.005a4.957 4.957 0 0 0 -2.4-.5 4.945 4.945 0 0 0 -2.81 1.023 1 1 0 0 1 -1.4-.187 1 1 0 0 1 .187-1.4 6.935 6.935 0 0 1 3.939-1.436 7.032 7.032 0 0 1 3.357.695h.01.006a1.7 1.7 0 0 0 1.5 0l.015-.007a7.031 7.031 0 0 1 3.357-.695 6.975 6.975 0 0 1 4.631 2.047 6.972 6.972 0 0 1 2.063 4.62 6.979 6.979 0 0 1 -1.7 4.928l-.009.01v.005a3.851 3.851 0 0 1 -2.922 1.351z" transform="translate(25.33 64.596)"/><path d="m-128.609-1a6.938 6.938 0 0 1 3.055.7l.011.005h.006a1.722 1.722 0 0 0 .75.173 1.722 1.722 0 0 0 .75-.173l.015-.007a6.937 6.937 0 0 1 3.057-.7h.041a6.972 6.972 0 0 1 4.805 1.963 6.957 6.957 0 0 1 2.15 4.724 6.98 6.98 0 0 1 -1.7 4.9 4.522 4.522 0 0 0 -.951 1.76c-.616 2.266-1.144 4.323-1.527 5.949a3.882 3.882 0 0 1 -.853 1.723 2.56 2.56 0 0 1 -1.943.873c-.056 0-.112 0-.169-.005a2.842 2.842 0 0 1 -2.642-2.655 55.489 55.489 0 0 0 -.756-5.882.912.912 0 0 0 -.251-.5.1.1 0 0 0 -.024 0 .1.1 0 0 0 -.024 0 .933.933 0 0 0 -.253.505 41.525 41.525 0 0 0 -.766 5.783 2.852 2.852 0 0 1 -2.732 2.734 2.827 2.827 0 0 1 -2.775-2.2c-.451-1.945-1-4.126-1.6-6.309a4.523 4.523 0 0 0 -.953-1.763 6.978 6.978 0 0 1 -1.713-4.909 6.957 6.957 0 0 1 2.144-4.726 6.971 6.971 0 0 1 4.807-1.963zm2.2 2.508-.011-.005h-.005a4.954 4.954 0 0 0 -2.184-.5h-.03a5.056 5.056 0 0 0 -4.968 4.778 4.987 4.987 0 0 0 1.223 3.508 6.534 6.534 0 0 1 1.374 2.549c.612 2.238 1.157 4.387 1.621 6.385a.813.813 0 0 0 .762.65h.017a.862.862 0 0 0 .784-.867 42.212 42.212 0 0 1 .834-6.183 2.288 2.288 0 0 1 2.2-1.974 2.322 2.322 0 0 1 2.206 1.979 54.245 54.245 0 0 1 .821 6.268.849.849 0 0 0 .765.8h.051c.523 0 .756-.658.848-1.05.388-1.648.922-3.728 1.544-6.016a6.533 6.533 0 0 1 1.37-2.546 4.988 4.988 0 0 0 1.216-3.5 5.057 5.057 0 0 0 -4.965-4.784h-.029a4.955 4.955 0 0 0 -2.184.5l-.014.007a3.73 3.73 0 0 1 -1.623.374 3.733 3.733 0 0 1 -1.623-.374z" transform="translate(139.197 27.858)"/><path d="m-111.882-46.14h3.252a3.715 3.715 0 0 1 3.71 3.71v1.878a3.339 3.339 0 0 0 2.547 3.249h.007a1 1 0 0 1 .672.567 1 1 0 0 1 -.033.877 4.324 4.324 0 0 0 -.366.914c-.616 2.265-1.144 4.323-1.527 5.949a3.882 3.882 0 0 1 -.852 1.719 2.56 2.56 0 0 1 -1.943.873c-.056 0-.112 0-.169-.005a2.842 2.842 0 0 1 -2.642-2.655 55.493 55.493 0 0 0 -.756-5.882.911.911 0 0 0 -.251-.5.1.1 0 0 0 -.024 0 .1.1 0 0 0 -.024 0 .932.932 0 0 0 -.253.505 41.544 41.544 0 0 0 -.766 5.783 2.852 2.852 0 0 1 -2.732 2.734h-.064a2.828 2.828 0 0 1 -2.711-2.2c-.45-1.942-1-4.124-1.6-6.31a4.374 4.374 0 0 0 -.347-.879 1 1 0 0 1 -.148-.522v-.006a1 1 0 0 1 .754-.969q.048-.012.1-.02a3.342 3.342 0 0 0 2.459-3.231v-1.869a3.715 3.715 0 0 1 3.707-3.71zm7.945 10.384a5.334 5.334 0 0 1 -2.982-4.8v-1.874a1.712 1.712 0 0 0 -1.71-1.71h-3.252a1.712 1.712 0 0 0 -1.71 1.71v1.872a5.339 5.339 0 0 1 -2.976 4.8q.049.15.091.3c.6 2.211 1.165 4.419 1.621 6.386a.813.813 0 0 0 .762.649h.017a.862.862 0 0 0 .784-.867 42.226 42.226 0 0 1 .834-6.183 2.288 2.288 0 0 1 2.2-1.974 2.322 2.322 0 0 1 2.206 1.979 54.248 54.248 0 0 1 .821 6.268.849.849 0 0 0 .764.8h.051c.523 0 .756-.658.848-1.05.388-1.648.922-3.728 1.543-6.015q.042-.147.088-.29z" transform="translate(144.948 75.15)"/></g></svg>