<svg xmlns="http://www.w3.org/2000/svg" width="51.423" height="38.153" viewBox="0 0 51.423 38.153"><g transform="translate(3 -9)"><path d="M47.6,10.812A29.981,29.981,0,0,0,37.316,9H35.695a18.3,18.3,0,0,0-8.983,2.358A18.3,18.3,0,0,0,17.728,9H16.107A29.974,29.974,0,0,0,5.825,10.812a7.329,7.329,0,0,0-4.3,9.61l.362.906a1.974,1.974,0,0,0-.057.456,10.227,10.227,0,0,0,.393,2.808l.856,3a2.963,2.963,0,0,0,1.629,1.873,9.28,9.28,0,0,0-1.219,4.583v1.177a6.437,6.437,0,0,0-1.659,4.323,7.167,7.167,0,0,0,5.647,7.039,23.822,23.822,0,0,0,5.175.569H18.7a12.065,12.065,0,0,0,8.01-3.011,12.065,12.065,0,0,0,8.01,3.011h6.051a23.872,23.872,0,0,0,5.175-.568,7.166,7.166,0,0,0,5.647-7.039,6.437,6.437,0,0,0-1.659-4.323V34.046a9.28,9.28,0,0,0-1.219-4.583,2.963,2.963,0,0,0,1.629-1.873l.856-3a10.244,10.244,0,0,0,.393-2.809,1.974,1.974,0,0,0-.057-.456l.362-.906a7.329,7.329,0,0,0-4.3-9.61ZM3.817,24.136a8.563,8.563,0,0,1-.329-2.351.356.356,0,0,1,.586-.243l1.9,1.9v1.274a6.2,6.2,0,0,0,.318,1.959,3.242,3.242,0,0,0,.559,1.009l-.01.01a1.292,1.292,0,0,1-.919.381,1.306,1.306,0,0,1-1.25-.943Zm43.065,5.532a7.586,7.586,0,0,1,1.393,4.213l-.888-.666a12.155,12.155,0,0,0-.941-3.68,2.992,2.992,0,0,0,.437.133Zm-8.559.525V28.076h1.146a3,3,0,0,0,1.158-.25,7.607,7.607,0,0,1,1.014,3.77v2.186a.931.931,0,0,1-1.588.658,12.322,12.322,0,0,1-1.839-2.354,17.192,17.192,0,0,0,.109-1.893Zm4.5-1.529a3.249,3.249,0,0,0,1.209.241c.073,0,.143-.012.216-.017a10.543,10.543,0,0,1,1.537,5.48.357.357,0,0,1-.587.243l-1.9-1.9V31.6A9.316,9.316,0,0,0,42.826,28.664Zm2.962-3.947a4.536,4.536,0,0,1-.233,1.434,1.6,1.6,0,0,1-2.408.826l-.957-.638a3,3,0,0,0,.28-1.264,15.371,15.371,0,0,0-.235-2.616l2.1-3.154a.791.791,0,0,1,1.45.439Zm-4.976.358a1.343,1.343,0,0,1-1.342,1.342H37.177a1.349,1.349,0,0,1-.6-.142,1.334,1.334,0,0,1-.741-1.2,13.661,13.661,0,0,1,.984-5.1,1.62,1.62,0,0,1,3.01,0A13.662,13.662,0,0,1,40.811,25.076Zm-4.976,2.684a3.011,3.011,0,0,0,.829.257v2.176a15.689,15.689,0,0,1-.468,3.8.949.949,0,0,1-1.77.194,18.647,18.647,0,0,1-1.513-4.254l.158-1.257a11.054,11.054,0,0,0,1.284-.333,2.16,2.16,0,0,0,1.09-.817A3.055,3.055,0,0,0,35.835,27.759ZM22.049,28.882a11.155,11.155,0,0,0,3.57-.414l-.484,3.876a2.726,2.726,0,0,1-.268.883,1.183,1.183,0,0,1-2.117,0,2.746,2.746,0,0,1-.268-.883Zm8.891,3.462a2.726,2.726,0,0,1-.268.883,1.183,1.183,0,0,1-2.117,0,2.738,2.738,0,0,1-.268-.883L27.8,28.469a11.045,11.045,0,0,0,3.055.437c.173,0,.343-.012.514-.021Zm3.236-6.06a.506.506,0,0,1-.346.483,9.473,9.473,0,0,1-5.944,0,.506.506,0,0,1-.345-.482V23.423a9.328,9.328,0,0,1,.682-3.515,2.792,2.792,0,0,1,1.038-1.294,2.9,2.9,0,0,1,3.187,0A2.8,2.8,0,0,1,33.5,19.919a9.294,9.294,0,0,1,.678,3.5Zm-8.294,0a.506.506,0,0,1-.346.483,9.473,9.473,0,0,1-5.944,0,.506.506,0,0,1-.345-.482V23.423a9.328,9.328,0,0,1,.682-3.515,2.792,2.792,0,0,1,1.038-1.294,2.9,2.9,0,0,1,3.187,0A2.8,2.8,0,0,1,25.2,19.919a9.294,9.294,0,0,1,.678,3.5ZM19.068,28.34a10.74,10.74,0,0,0,1.285.333l.158,1.259A18.672,18.672,0,0,1,19,34.187a.95.95,0,0,1-1.771-.195,15.667,15.667,0,0,1-.468-3.8V28.017a2.983,2.983,0,0,0,.829-.257,3.032,3.032,0,0,0,.391-.236,2.144,2.144,0,0,0,1.089.816ZM8.222,34.61a.356.356,0,0,1-.587-.242,10.539,10.539,0,0,1,1.537-5.48c.072,0,.143.017.216.017a3.253,3.253,0,0,0,1.21-.241,9.293,9.293,0,0,0-.474,2.931v1.114Zm-2.185-1.4-.888.666A7.576,7.576,0,0,1,6.54,29.668a2.866,2.866,0,0,0,.438-.133,12.155,12.155,0,0,0-.941,3.68Zm5.745-1.62a7.607,7.607,0,0,1,1.014-3.77,3,3,0,0,0,1.158.25H15.1v2.117a17.168,17.168,0,0,0,.109,1.893,12.317,12.317,0,0,1-1.839,2.353.93.93,0,0,1-1.588-.657Zm5.064-5.32h0a1.349,1.349,0,0,1-.6.142H13.954a1.349,1.349,0,0,1-.6-.142,1.334,1.334,0,0,1-.741-1.2,13.661,13.661,0,0,1,.984-5.1,1.62,1.62,0,0,1,3.01,0,13.662,13.662,0,0,1,.983,5.1,1.334,1.334,0,0,1-.741,1.2Zm-5.614.064-.957.639a1.6,1.6,0,0,1-2.407-.825,4.554,4.554,0,0,1-.233-1.436V19.744a.791.791,0,0,1,1.45-.439l2.1,3.153a15.465,15.465,0,0,0-.234,2.617,3.009,3.009,0,0,0,.28,1.264ZM45.588,44.965a22.247,22.247,0,0,1-4.816.529H34.721A10.427,10.427,0,0,1,27.3,42.419a.854.854,0,0,0-1.173,0A10.425,10.425,0,0,1,18.7,45.494H12.651a22.247,22.247,0,0,1-4.816-.529,5.517,5.517,0,0,1-4.347-5.419A4.8,4.8,0,0,1,4.874,36.16L6.161,35.2a2,2,0,0,0,3.234.589l.955-.955a2.586,2.586,0,0,0,4.2.783A13.963,13.963,0,0,0,15.618,34.4a2.608,2.608,0,0,0,4.863.532c.226-.45.428-.912.619-1.378a4.315,4.315,0,0,0,.167.419,2.842,2.842,0,0,0,5.084,0,4.371,4.371,0,0,0,.361-1.093,4.371,4.371,0,0,0,.361,1.093,2.841,2.841,0,0,0,5.083,0,4.251,4.251,0,0,0,.168-.42c.191.466.394.927.62,1.378A2.607,2.607,0,0,0,37.8,34.4a13.972,13.972,0,0,0,1.075,1.216,2.585,2.585,0,0,0,4.193-.783l.955.955a2,2,0,0,0,3.234-.589l1.286.965a4.8,4.8,0,0,1,1.386,3.385A5.517,5.517,0,0,1,45.588,44.965Zm4.018-20.828-.856,3a1.307,1.307,0,0,1-1.251.943,1.292,1.292,0,0,1-.919-.381l-.01-.01a3.249,3.249,0,0,0,.559-1.009,6.2,6.2,0,0,0,.318-1.959V23.443l1.9-1.9a.356.356,0,0,1,.587.242,8.573,8.573,0,0,1-.329,2.352Zm.753-4.329-.046.114a1.991,1.991,0,0,0-.722-.139,2.019,2.019,0,0,0-1.416.586l-.729.729V19.744a2.45,2.45,0,0,0-4.489-1.359l-1.267,1.9c-.1-.311-.2-.624-.322-.931a3.28,3.28,0,0,0-6.092,0c-.041.1-.07.211-.109.315-.044-.121-.079-.246-.128-.365a4.452,4.452,0,0,0-1.665-2.074,4.564,4.564,0,0,0-5.04,0,4.45,4.45,0,0,0-1.624,1.983,4.463,4.463,0,0,0-1.631-1.987,4.564,4.564,0,0,0-5.04,0A4.447,4.447,0,0,0,18.385,19.3c-.05.124-.086.252-.132.377-.04-.105-.068-.213-.11-.318a3.278,3.278,0,0,0-6.089,0c-.122.305-.219.617-.321.927l-1.267-1.9a2.45,2.45,0,0,0-4.489,1.359V21.1l-.729-.73a2.022,2.022,0,0,0-1.416-.586,1.992,1.992,0,0,0-.722.139l-.046-.114A5.673,5.673,0,0,1,6.392,12.37a28.353,28.353,0,0,1,9.715-1.711h1.621a16.635,16.635,0,0,1,8.556,2.37.833.833,0,0,0,.853,0,16.64,16.64,0,0,1,8.557-2.37h1.621a28.346,28.346,0,0,1,9.715,1.711,5.673,5.673,0,0,1,3.328,7.437Z" transform="translate(-4)" fill="#242837"/></g></svg>