<svg enable-background="new 0 0 299 316" viewBox="0 0 299 316" xmlns="http://www.w3.org/2000/svg" xmlns:xlink="http://www.w3.org/1999/xlink"><linearGradient id="a" gradientTransform="matrix(1 0 0 -1 0 318)" gradientUnits="userSpaceOnUse" x1="93.313" x2="260.813" y1="102.8192" y2="228.8192"><stop offset="0" stop-color="#3c7df3"/><stop offset=".461" stop-color="#3892f4"/><stop offset="1" stop-color="#31baf7"/></linearGradient><path d="m5.4 137c-3 0-5.4-2.4-5.4-5.4 0-2.9 2.4-5.3 5.4-5.3 2.9 0 5.3 2.4 5.3 5.3 0 3-2.4 5.4-5.3 5.4z" fill="#232736"/><path d="m179.3 265.6c-63.6 0-115.1-51.4-115.1-115.1s51.5-115.2 115.1-115.2c63.7 0 115.2 51.5 115.2 115.2s-51.5 115.1-115.2 115.1z" fill="url(#a)"/><g fill="#232736"><path d="m44.1 45.3c-.6 0-1.2-.1-1.9-.3-.6-.3-1.1-.6-1.6-1.1s-.8-1-1.1-1.7c-.3-.6-.4-1.2-.4-1.9v-10c0-1.3.6-2.6 1.5-3.5.9-1 2.2-1.5 3.5-1.5 1.4 0 2.7.5 3.6 1.5.9.9 1.5 2.2 1.5 3.5v10c0 .7-.1 1.3-.4 1.9-.3.7-.6 1.2-1.1 1.7s-1 .8-1.6 1.1c-.7.2-1.3.3-2 .3z"/><path d="m44.1 75.4c-.6 0-1.2-.1-1.9-.4-.6-.3-1.1-.6-1.6-1.1s-.8-1-1.1-1.6-.4-1.2-.4-1.9v-10c0-1.4.6-2.6 1.5-3.6.9-.9 2.2-1.5 3.5-1.5 1.4 0 2.7.6 3.6 1.5.9 1 1.5 2.2 1.5 3.6v10c0 .7-.1 1.3-.4 1.9s-.6 1.1-1.1 1.6-1 .8-1.6 1.1c-.7.3-1.3.4-2 .4z"/><path d="m34.1 55.3h-10c-1.3 0-2.6-.5-3.5-1.4-1-1-1.5-2.2-1.5-3.6 0-1.3.5-2.6 1.5-3.5.9-.9 2.2-1.5 3.5-1.5h10c1.4 0 2.6.6 3.6 1.5.9.9 1.4 2.2 1.4 3.5 0 1.4-.5 2.6-1.4 3.6-1 .9-2.2 1.4-3.6 1.4z"/><path d="m64.2 55.3h-10c-1.4 0-2.6-.5-3.6-1.4-.9-1-1.4-2.2-1.4-3.6 0-1.3.5-2.6 1.4-3.5 1-.9 2.2-1.5 3.6-1.5h10c1.3 0 2.6.6 3.5 1.5 1 .9 1.5 2.2 1.5 3.5 0 1.4-.5 2.6-1.5 3.6-.9.9-2.2 1.4-3.5 1.4z"/><path clip-rule="evenodd" d="m256.9 300.7c-7 0-13.4-4.3-16.1-10.8-2.8-6.6-1.3-14.1 3.8-19.1 5-5 12.5-6.5 19.1-3.8 6.5 2.7 10.8 9.1 10.8 16.2 0 2.3-.5 4.5-1.4 6.7-.8 2.1-2.1 4-3.8 5.7-1.6 1.6-3.5 2.9-5.6 3.8-2.2.8-4.5 1.3-6.8 1.3zm0-25c-3 0-5.7 1.8-6.9 4.6s-.5 6 1.6 8.2c2.2 2.1 5.4 2.8 8.2 1.6s4.7-3.9 4.7-6.9c0-1-.2-2-.6-2.9s-.9-1.7-1.6-2.4-1.6-1.3-2.5-1.7c-.9-.3-1.9-.5-2.9-.5z" fill-rule="evenodd"/><path d="m280.7 212.1c-2.9 0-5.3-2.4-5.3-5.4 0-2.9 2.4-5.3 5.3-5.3 3 0 5.4 2.4 5.4 5.3 0 3-2.4 5.4-5.4 5.4z"/></g><path d="m114.2 238.1v55.8c0 2.2-.4 4.4-1.2 6.4-.9 2-2.1 3.9-3.7 5.5-1.6 1.5-3.4 2.8-5.5 3.6-2 .9-4.2 1.3-6.4 1.3-1.7 0-3.3-.2-4.8-.7-1.6-.4-3.1-1.1-4.5-2-1.3-.9-2.5-1.9-3.6-3.2s-1.9-2.7-2.6-4.2c-7.7-18.9-9.4-45.7-9.5-65.2-.1-1.3-.2-2.5-.3-3.8s-.3-2.5-.5-3.7c-.2-1.3-.4-2.5-.7-3.8-.3-1.2-.6-2.4-.9-3.6-3.6-13.8-10.6-26.3-18.9-37.9-8.5-11.9-12.5-26.5-11.3-41.2 1.3-14.6 7.7-28.3 18.2-38.7 10.5-10.3 24.3-16.5 38.9-17.6 14.7-1 29.3 3.2 41.1 11.9.5.4 1.1.7 1.8.9.7.3 1.3.4 2 .4s1.4-.1 2.1-.4c.6-.2 1.2-.5 1.8-.9 11.8-8.7 26.4-12.9 41-11.8 14.7 1 28.5 7.3 38.9 17.6 10.5 10.3 16.9 24 18.2 38.6 1.3 14.7-2.7 29.3-11.3 41.2-8.2 11.6-15.2 24.1-18.8 37.9-.3 1.2-.6 2.4-.9 3.6-.3 1.3-.6 2.5-.8 3.8-.2 1.2-.4 2.4-.5 3.7s-.2 2.5-.2 3.8c-.2 19.5-1.9 46.2-9.6 65.2-.6 1.5-1.4 2.8-2.5 4.1s-2.3 2.4-3.7 3.3c-1.3.9-2.8 1.5-4.4 2s-3.2.7-4.9.7c-2.2 0-4.4-.4-6.4-1.3-2.1-.8-4-2.1-5.5-3.7-1.6-1.5-2.8-3.4-3.7-5.4-.8-2.1-1.3-4.3-1.3-6.5v-55.7c0-7.3-2.9-14.3-8-19.5-5.2-5.1-12.2-8-19.5-8s-14.3 2.9-19.5 8c-5.2 5.2-8.1 12.2-8.1 19.5z" fill="#fff"/><path clip-rule="evenodd" d="m186.2 315.7c-2.8 0-5.7-.6-8.3-1.7-2.7-1.1-5.1-2.7-7.2-4.7-2-2-3.6-4.5-4.7-7.1-1.1-2.7-1.7-5.5-1.7-8.4v-55.7c0-5.9-2.4-11.6-6.6-15.8-4.3-4.2-10-6.6-15.9-6.6-6 0-11.7 2.4-15.9 6.6s-6.6 9.9-6.6 15.8v55.8c0 2.8-.6 5.7-1.7 8.3-1.1 2.7-2.7 5.1-4.8 7.1-2 2-4.4 3.6-7 4.7-2.7 1.1-5.5 1.7-8.4 1.7-2.1 0-4.3-.3-6.3-.8-2.1-.6-4-1.5-5.8-2.7s-3.4-2.6-4.7-4.3c-1.4-1.6-2.5-3.4-3.3-5.4-6.4-15.7-9.7-38.3-9.9-67.1-.1-1.1-.2-2.3-.3-3.5-.1-1.1-.2-2.3-.4-3.4s-.4-2.3-.7-3.4-.6-2.3-.9-3.4c-3-11.6-8.9-23.4-18-36.2-9.3-12.9-13.6-28.7-12.2-44.5 1.3-15.8 8.3-30.7 19.6-41.8 11.3-11.2 26.2-17.9 42.1-19.1 15.8-1.1 31.6 3.4 44.4 12.9.1.1.2.1.4.2.1.1.3.1.4.1.2 0 .4 0 .5-.1s.3-.1.4-.2c12.8-9.4 28.5-14 44.4-12.8 15.8 1.1 30.7 7.9 42 19 11.3 11.2 18.3 26 19.7 41.8 1.3 15.8-3 31.6-12.2 44.5-9.1 12.8-15 24.6-18.1 36.2-.3 1.1-.6 2.3-.8 3.4-.3 1.1-.5 2.3-.7 3.4s-.4 2.3-.5 3.4c-.1 1.2-.2 2.4-.2 3.5-.2 28.8-3.6 51.4-9.9 67.1-.8 1.9-2 3.8-3.3 5.4-1.4 1.7-3 3.1-4.8 4.3-1.7 1.1-3.7 2.1-5.7 2.7-2.1.6-4.2.8-6.4.8zm-44.4-110.1c4.3 0 8.5.8 12.4 2.4 4 1.7 7.6 4.1 10.6 7.1s5.4 6.6 7 10.6c1.7 3.9 2.5 8.1 2.5 12.4v55.7c0 1.6.3 3.1.9 4.6.6 1.4 1.5 2.7 2.6 3.8s2.4 2 3.9 2.6c1.4.6 3 .9 4.5.9 1.2 0 2.3-.2 3.4-.5s2.2-.7 3.1-1.4c1-.6 1.9-1.3 2.6-2.2s1.3-1.8 1.8-2.9c5.8-14.3 9-36.2 9.2-63.4 0-1.3.1-2.7.2-4 .1-1.4.3-2.8.6-4.1.2-1.3.4-2.7.7-4s.7-2.7 1-4c3.4-12.8 9.8-25.7 19.6-39.5 7.9-11 11.6-24.4 10.4-37.8-1.1-13.5-7.1-26.1-16.7-35.6s-22.3-15.2-35.7-16.2c-13.5-.9-26.9 2.9-37.8 10.9-.9.7-2 1.3-3.2 1.7-1.1.3-2.3.5-3.6.5-1.2 0-2.4-.2-3.6-.5-1.1-.4-2.2-1-3.2-1.7-10.9-8-24.2-11.8-37.7-10.8-13.5.9-26.1 6.7-35.7 16.1-9.7 9.5-15.6 22.1-16.7 35.6-1.2 13.4 2.5 26.8 10.3 37.8 9.9 13.8 16.3 26.7 19.6 39.5.4 1.3.7 2.7 1 4s.6 2.7.8 4 .4 2.7.5 4.1c.1 1.3.2 2.7.3 4 .2 27.2 3.4 49.1 9.2 63.4.5 1.1 1.1 2 1.8 2.9s1.6 1.6 2.5 2.2c1 .7 2 1.1 3.1 1.4s2.3.5 3.4.5c1.5 0 3.1-.3 4.5-.9 1.5-.6 2.8-1.5 3.9-2.6s1.9-2.4 2.5-3.8c.6-1.5.9-3 .9-4.5v-55.8c0-4.3.9-8.5 2.5-12.4 1.7-4 4.1-7.6 7.1-10.6s6.6-5.4 10.5-7.1c4-1.6 8.2-2.4 12.5-2.4z" fill="#232736" fill-rule="evenodd"/><path d="m171.8 148.7c-3.2 0-5.7-2.5-5.7-5.7s2.5-5.8 5.7-5.8 5.8 2.6 5.8 5.8-2.6 5.7-5.8 5.7z" fill="#232736"/><path d="m101.7 148.7c-3.2 0-5.7-2.5-5.7-5.7s2.5-5.8 5.7-5.8 5.8 2.6 5.8 5.8-2.6 5.7-5.8 5.7z" fill="#232736"/><path d="m148.8 189c-.4 0-.8 0-1.2 0-.5-.1-.9-.1-1.3-.2s-.8-.1-1.2-.2c-.5-.1-.9-.2-1.3-.3-1.2-.4-2.3-1.3-2.9-2.5-.6-1.1-.8-2.5-.4-3.8.4-1.2 1.2-2.3 2.4-2.9 1.2-.7 2.5-.8 3.8-.4.9.3 1.9.4 2.9.3s1.9-.4 2.8-.9 1.6-1.1 2.3-1.9c.6-.7 1-1.6 1.3-2.6.4-1.2 1.3-2.3 2.5-2.9 1.1-.6 2.5-.8 3.8-.4 1.2.4 2.3 1.3 2.9 2.4.7 1.2.8 2.5.4 3.8-.5 1.8-1.3 3.5-2.4 5-1.1 1.6-2.4 2.9-3.9 4-1.5 1.2-3.2 2-4.9 2.6-1.8.6-3.7.9-5.6.9z" fill="#232736"/><path d="m244.4 78.4c-.5-.9-1-2.2-1.6-4-.6-1.7-.9-3.5-.9-5.5 0-2.2.5-4.3 1.5-6.1 1-1.9 2.5-3.7 4.4-5.6 2-1.9 4.4-4 7.4-6.2 3-2.3 5.4-4.2 6.9-5.8 1.6-1.5 2.6-3 3.2-4.4.5-1.4.8-3.2.8-5.4 0-3.6-1.2-6.2-3.6-7.8s-6.3-2.4-11.7-2.4c-2.2 0-4.6.1-7.3.4s-5.4.6-8 1.1-4.9.9-6.9 1.3l-.9-13.8c2.3-.6 5-1.3 8.1-2.1 3.1-.7 6.4-1.3 9.9-1.8 3.4-.5 6.6-.7 9.4-.7 7 0 12.8.8 17.3 2.4 4.6 1.6 8 4.2 10.2 7.9 2.3 3.6 3.4 8.4 3.4 14.5 0 4.4-.4 7.9-1.1 10.6s-2.1 5.1-4.1 7.2-4.7 4.5-8.3 7.2c-4.4 3.3-7.6 6.1-9.5 8.2s-2.9 4.4-3 6.7v4h-15.6zm-2.4 28.8v-19.3h20.5v19.3z" fill="#242837"/></svg>