<svg height="50.727" viewBox="0 0 50.768 50.727" width="50.768" xmlns="http://www.w3.org/2000/svg"><g fill="#242837" transform="translate(0 -.211)"><path d="m45.908.212a5.149 5.149 0 0 0 -2.82.9 1.716 1.716 0 0 1 -1.994 0 4.809 4.809 0 0 0 -2.877-.9 4.858 4.858 0 0 0 -4.205 7.194c-2.212 1.22-4.334 2.638-6.491 3.953a5.5 5.5 0 0 0 -2.628 4.84l.046 1.619a5.864 5.864 0 0 0 -1.822 2.155c-8.036 1.554-7.691 1.43-7.9 1.56l-5.845 3.53a.744.744 0 1 0 .769 1.273l5.731-3.461 7.908-1.513a.744.744 0 0 0 .549-.45 4.37 4.37 0 0 1 4.114-2.712h.026a4.368 4.368 0 0 1 .238 8.721h-.055a4.366 4.366 0 0 1 -3.824-1.8.744.744 0 0 0 -.748-.293l-8.629 1.726c-.2.04.578-.328-12.421 6.526a1.052 1.052 0 0 1 -1.03-1.826l5.431-3.28a.744.744 0 1 0 -.773-1.274l-5.431 3.28a2.539 2.539 0 0 0 2.5 4.419l12.122-6.399 8.076-1.615a5.556 5.556 0 0 0 .633.631l-1.616 8.078-6.4 12.124a2.539 2.539 0 0 0 4.419 2.5c8.957-14.865 8.492-13.982 8.539-14.23l.3-1.559a.744.744 0 0 0 -1.461-.28l-.273 1.428-8.382 13.865a1.052 1.052 0 0 1 -1.83-1.035c6.855-13 6.486-12.22 6.526-12.421l1.52-7.607a5.917 5.917 0 0 0 3.447.462l-.4 2.114a.744.744 0 0 0 1.461.28l.558-2.916a5.831 5.831 0 0 0 1.514-1.079c3.377.095 3.053.088 3.194.088a5.5 5.5 0 0 0 4.685-2.63l3.547-5.818a2.535 2.535 0 0 0 1.378.408 2.562 2.562 0 0 0 2.548-2.379l.284-4.116a.744.744 0 1 0 -1.484-.1l-.284 4.116a1.066 1.066 0 0 1 -2.114.111c-.019-.108-.03-.317-.093-1.029l-.324-3.811a1.731 1.731 0 0 0 -3.451-.007l-.4 4.743a1.067 1.067 0 0 1 -2.128-.007c-.4-5.605-.346-5.5-.465-6.1a2.349 2.349 0 0 0 -1.737-3.041 3.371 3.371 0 0 1 2.638-5.468c1.708-.019 2.721 1.268 3.412 2.627a.744.744 0 0 0 1.326-.674c-.072-.142-.259-.509-.4-.776a3.2 3.2 0 0 0 1.34-.552 3.435 3.435 0 0 1 1.956-.625 3.372 3.372 0 0 1 2.408 5.734 5.334 5.334 0 0 0 -.916 1.183.744.744 0 1 0 1.294.734 3.848 3.848 0 0 1 .662-.858l.011-.011a4.86 4.86 0 0 0 -3.459-8.27zm-19.527 15.947a4.008 4.008 0 0 1 1.919-3.528l6.4-3.9a.858.858 0 0 1 1.071 1.322l-3.814 4.037a5.446 5.446 0 0 0 -1.457 3.021 5.889 5.889 0 0 0 -4.1-.064zm9.97.249a2.549 2.549 0 0 0 .845 1.723l-.586.553a4.063 4.063 0 0 1 -3.091 1.084 5.87 5.87 0 0 0 -1.575-1.842 3.971 3.971 0 0 1 1.091-2.817l3.007-3.183zm5.74-4.944a.246.246 0 0 1 .243.232l.217 2.557a2.381 2.381 0 0 0 -.926.067l.224-2.632a.244.244 0 0 1 .242-.224zm-.645 4.968.025-.293.2-.186a.856.856 0 0 1 1.017-.119 4.75 4.75 0 0 0 .219 1.331l-3.816 6.26a4.006 4.006 0 0 1 -3.528 1.916l-2-.057a5.828 5.828 0 0 0 .666-2.716 5.9 5.9 0 0 0 -.147-1.306 5.446 5.446 0 0 0 3.55-1.495l1.046-.989a2.562 2.562 0 0 0 2.768-2.346z"/><path d="m264.254 203.809a2.607 2.607 0 1 0 -1.844.764 2.591 2.591 0 0 0 1.844-.764zm-2.636-1.052a1.12 1.12 0 1 1 .783.328 1.094 1.094 0 0 1 -.782-.328z" transform="translate(-234.039 -179.399)"/></g></svg>