<svg xmlns="http://www.w3.org/2000/svg" width="48.229" height="45.147" viewBox="0 0 48.229 45.147"><path d="M31.359,44.014a.8.8,0,0,0-.934.545c-.545,2.1-2.1,2.023-2.257,1.946,0,0-1.712.078-2.335-2.179l-2.023-9.65a3.96,3.96,0,0,0-3.736-3.347,3.96,3.96,0,0,0-3.736,3.347l-2.023,9.65a2.4,2.4,0,0,1-2.257,2.1,2.3,2.3,0,0,1-2.335-1.79L3.964,27.048A31.229,31.229,0,0,1,4.353,7.28a.81.81,0,0,0-.467-1.012.7.7,0,0,0-.934.467,32.2,32.2,0,0,0-.389,20.779L8.244,45.259a3.807,3.807,0,0,0,3.891,2.88,3.96,3.96,0,0,0,3.736-3.347l2.023-9.65a2.386,2.386,0,0,1,2.179-2.1,2.531,2.531,0,0,1,2.257,2.1l2.023,9.573a4.117,4.117,0,0,0,3.736,3.424,3.739,3.739,0,0,0,3.891-3.113.944.944,0,0,0-.623-1.012Zm1.323-4.825a.8.8,0,0,0-.934.545l-.467,1.712a.8.8,0,0,0,.545.934.776.776,0,0,0,.934-.545l.467-1.712A.76.76,0,0,0,32.682,39.189Zm2.646-15.02a3.438,3.438,0,0,1-2.413-1.79,4.081,4.081,0,0,1-.078-2.646,19.042,19.042,0,0,0,.856-5.526,3.391,3.391,0,0,1,.856-2.257,4.439,4.439,0,0,0,1.323-4.358s-1.245-4.514-5.136-4.514a5.112,5.112,0,0,0-3.58,1.634A9.4,9.4,0,0,0,21.63,3a10.131,10.131,0,0,0-6.3,2.257A7.418,7.418,0,0,0,11.669,5.1,5.54,5.54,0,0,0,7.777,3a4.828,4.828,0,0,0-2.49.7.788.788,0,0,0,.856,1.323,3.063,3.063,0,0,1,1.634-.467,3.556,3.556,0,0,1,2.335,1.167,10.01,10.01,0,0,0-2.49,1.868A.772.772,0,0,0,8.789,8.6a7.223,7.223,0,0,1,4.436-2.179A5.164,5.164,0,0,1,17.35,8.448a5.8,5.8,0,0,0,4.436,2.179,5.989,5.989,0,0,0,4.2-2.257L28.168,5.8a3.532,3.532,0,0,1,2.568-1.245c2.023,0,3.191,2.257,3.58,3.113,0,0-4.592.778-6.382,4.125a8.443,8.443,0,0,0-1.167,4.125,17.311,17.311,0,0,1-.545,4.436,6.233,6.233,0,0,0,2.335,6.382,5.133,5.133,0,0,0,3.113,1.012h3.113L32.37,36.854a.8.8,0,0,0,.545.934.776.776,0,0,0,.934-.545s2.8-10.429,2.8-10.506A2.038,2.038,0,0,0,35.328,24.169ZM24.743,7.436a4.579,4.579,0,0,1-3.035,1.712A4.534,4.534,0,0,1,18.44,7.436a11.735,11.735,0,0,0-1.557-1.323A7.937,7.937,0,0,1,21.63,4.557,9.232,9.232,0,0,1,26.144,5.8Zm7,18.834a4.055,4.055,0,0,1-2.257-.7,4.579,4.579,0,0,1-1.712-4.747,19.76,19.76,0,0,0,.545-4.747,6.392,6.392,0,0,1,.934-3.347,7.776,7.776,0,0,1,5.214-3.5c0,.778-1.012,1.557-1.012,1.557a4.648,4.648,0,0,0-1.245,3.269,15.971,15.971,0,0,1-.778,5.059,5.084,5.084,0,0,0,.156,3.813,5.528,5.528,0,0,0,3.269,2.646.616.616,0,0,1,.389.623h-3.5ZM6.143,10.86a.753.753,0,0,0-.934.623,32.874,32.874,0,0,0,.934,16.032.847.847,0,0,0,1.012.545A.892.892,0,0,0,7.7,27.048a30.979,30.979,0,0,1-.856-15.332.912.912,0,0,0-.7-.856Zm.934,19.69.7,2.179a.847.847,0,0,0,1.012.545.892.892,0,0,0,.545-1.012l-.7-2.179a.892.892,0,0,0-1.012-.545A.763.763,0,0,0,7.077,30.55Zm41.4-16.577a.735.735,0,0,0-.778.778V25.569a.864.864,0,0,1-.856.856,4.055,4.055,0,0,1-2.257-.7,4.579,4.579,0,0,1-1.712-4.747,19.76,19.76,0,0,0,.545-4.747,6.392,6.392,0,0,1,.934-3.347,6.493,6.493,0,0,1,2.023-2.1c.778-.545,1.245.389,1.323.7a.851.851,0,0,0,.778.778c.778.078.778-.856.778-.856a2.535,2.535,0,0,0-1.323-2.1,2.416,2.416,0,0,0-2.49.233,9.488,9.488,0,0,0-2.413,2.568,7.692,7.692,0,0,0-1.167,4.125,17.311,17.311,0,0,1-.545,4.436,6.233,6.233,0,0,0,2.335,6.382,5.133,5.133,0,0,0,3.113,1.012,2.425,2.425,0,0,0,2.413-2.413v-10.9a.644.644,0,0,0-.7-.778Zm-8.561,3.035h-2.8s.856-.623.233-1.323a.752.752,0,0,0-1.09,0l-1.557,1.557a.841.841,0,0,0,0,1.09l1.557,1.557a.814.814,0,0,0,1.09,0c.623-.623-.233-1.323-.233-1.323h2.8a.778.778,0,0,0,0-1.557Z" transform="translate(-1.03 -3)" fill="#242837"/></svg>