<svg xmlns="http://www.w3.org/2000/svg" width="24.223" height="27" viewBox="0 0 24.223 27"><g transform="translate(-67.458 -334.141)" opacity="0.5"><path d="M22.223,8.46a1,1,0,0,1-1-1V4.974A3.707,3.707,0,0,0,19.929,2.2,4.933,4.933,0,0,0,16.668,1H5.556A4.933,4.933,0,0,0,2.294,2.2,3.707,3.707,0,0,0,1,4.974V7.46a1,1,0,0,1-1,1,1,1,0,0,1-1-1V4.974A5.758,5.758,0,0,1,.96.712,6.862,6.862,0,0,1,5.556-1H16.668A6.862,6.862,0,0,1,21.263.712a5.758,5.758,0,0,1,1.96,4.261V7.46A1,1,0,0,1,22.223,8.46Z" transform="translate(68.458 352.681)" fill="#232736" opacity="0.5"/><path d="M4.974-1A5.974,5.974,0,0,1,9.941,8.292,5.974,5.974,0,1,1,4.974-1Zm0,9.947A3.974,3.974,0,1,0,4.2,8.871,3.954,3.954,0,0,0,4.974,8.947Z" transform="translate(74.597 335.141)" fill="#232736" opacity="0.5"/></g></svg>