<svg height="159.804" viewBox="0 0 185.673 159.804" width="185.673" xmlns="http://www.w3.org/2000/svg" xmlns:xlink="http://www.w3.org/1999/xlink"><linearGradient id="a" gradientUnits="objectBoundingBox" x2=".784" y1=".813" y2=".283"><stop offset="0" stop-color="#3c7df3"/><stop offset=".461" stop-color="#3892f4"/><stop offset="1" stop-color="#31baf7"/></linearGradient><linearGradient id="b" gradientUnits="objectBoundingBox" x1=".5" x2=".5" y2="1"><stop offset="0" stop-color="#5313c1"/><stop offset="1" stop-color="#5b18bd"/></linearGradient><ellipse cx="79.42" cy="79.902" fill="url(#a)" rx="79.42" ry="79.902" transform="translate(13.355 0)"/><path d="m81.534 72.74a3.2 3.2 0 0 0 3.2-3.2z" fill="#4f4f67" fill-rule="evenodd" transform="translate(-21.551 -41.304)"/><path d="m171.822 74.962a3.2 3.2 0 0 0 3.2 3.2h28.811a3.2 3.2 0 0 0 3.2-3.2z" fill="#46465d" fill-rule="evenodd" transform="translate(-49.415 -46.727)"/><path d="m198.173 96.367a22.41 22.41 0 0 0 -22.409-22.409h-140.855a22.41 22.41 0 0 0 -22.409 22.409v73.633a22.41 22.41 0 0 0 22.409 22.4h140.855a22.41 22.41 0 0 0 22.409-22.4z" fill="#f3f3f3" fill-rule="evenodd" transform="translate(-12.5 -48.925)"/><path d="m192.67 114.059v-4.581a7.314 7.314 0 0 0 -7.313-7.313h-4.992a7.314 7.314 0 0 0 -7.313 7.313v4.581h-4.582a7.312 7.312 0 0 0 -7.313 7.313v4.993a7.312 7.312 0 0 0 7.313 7.313h4.581v4.582a7.313 7.313 0 0 0 7.313 7.313h4.992a7.314 7.314 0 0 0 7.313-7.313v-4.582h4.581a7.313 7.313 0 0 0 7.313-7.313v-4.993a7.313 7.313 0 0 0 -7.313-7.313z" fill="none" transform="translate(-46.944 -55.46)"/><circle cx="49.483" cy="63.924" fill="#ffe8dc" r="17.22"/><path d="m98.161 172.619a16.007 16.007 0 0 0 -16.007-16.006h-28.854a16.006 16.006 0 0 0 -16 16.006v7.662a9.6 9.6 0 0 0 9.6 9.6h41.657a9.6 9.6 0 0 0 9.6-9.6z" fill="url(#b)" fill-rule="evenodd" transform="translate(-18.245 -68.076)"/><g fill="#242837"><path d="m192.67 114.059v-4.581a7.314 7.314 0 0 0 -7.313-7.313h-4.992a7.314 7.314 0 0 0 -7.313 7.313v4.581h-4.582a7.312 7.312 0 0 0 -7.313 7.313v4.993a7.312 7.312 0 0 0 7.313 7.313h4.581v4.582a7.313 7.313 0 0 0 7.313 7.313h4.992a7.314 7.314 0 0 0 7.313-7.313v-4.582h4.581a7.313 7.313 0 0 0 7.313-7.313v-4.993a7.313 7.313 0 0 0 -7.313-7.313zm-6.4 3.2a3.2 3.2 0 0 0 3.2 3.2h7.783a.91.91 0 0 1 .91.91v4.993a.91.91 0 0 1 -.91.91h-7.783a3.2 3.2 0 0 0 -3.2 3.2v7.782a.911.911 0 0 1 -.91.911h-4.993a.911.911 0 0 1 -.91-.91v-7.783a3.2 3.2 0 0 0 -3.2-3.2h-7.787a.911.911 0 0 1 -.91-.91v-4.993a.911.911 0 0 1 .91-.91h7.783a3.2 3.2 0 0 0 3.2-3.2v-7.783a.91.91 0 0 1 .91-.91h4.992a.91.91 0 0 1 .91.91z" fill-rule="evenodd" transform="translate(-46.944 -55.46)"/><path d="m71.713 102.164a17.22 17.22 0 1 0 17.22 17.22 17.228 17.228 0 0 0 -17.22-17.22zm0 6.4a10.817 10.817 0 1 1 -10.813 10.82 10.822 10.822 0 0 1 10.813-10.817z" fill-rule="evenodd" transform="translate(-22.23 -55.46)"/><path d="m98.161 172.619a16.007 16.007 0 0 0 -16.007-16.006h-28.854a16.006 16.006 0 0 0 -16 16.006v7.662a9.6 9.6 0 0 0 9.6 9.6h41.657a9.6 9.6 0 0 0 9.6-9.6zm-6.4 0v7.662a3.2 3.2 0 0 1 -3.2 3.2h-41.661a3.2 3.2 0 0 1 -3.2-3.2v-7.661a9.6 9.6 0 0 1 9.6-9.6h28.854a9.6 9.6 0 0 1 9.604 9.599z" fill-rule="evenodd" transform="translate(-18.245 -68.076)"/><path d="m152.644 174.631h55.006a3.2 3.2 0 0 0 0-6.4h-55.006a3.2 3.2 0 0 0 0 6.4z" fill-rule="evenodd" transform="translate(-44.229 -70.767)"/><path d="m152.644 196.367h55.006a3.2 3.2 0 1 0 0-6.4h-55.006a3.2 3.2 0 1 0 0 6.4z" fill-rule="evenodd" transform="translate(-44.229 -75.804)"/><path d="m198.173 96.367a22.41 22.41 0 0 0 -22.409-22.409h-140.855a22.41 22.41 0 0 0 -22.409 22.409v73.633a22.41 22.41 0 0 0 22.409 22.4h140.855a22.41 22.41 0 0 0 22.409-22.4zm-6.4 0v73.633a16.006 16.006 0 0 1 -16.009 16h-140.855a16.006 16.006 0 0 1 -16.009-16v-73.633a16.006 16.006 0 0 1 16.009-16.006h140.855a16.006 16.006 0 0 1 16.006 16.006z" fill-rule="evenodd" transform="translate(-12.5 -48.925)"/><circle cx="37.213" cy="154.966" r="3.236"/><circle cx="152.898" cy="12.894" r="5.05"/></g></svg>