<svg height="221.157" viewBox="0 0 223.958 221.157" width="223.958" xmlns="http://www.w3.org/2000/svg" xmlns:xlink="http://www.w3.org/1999/xlink"><linearGradient id="a" gradientUnits="objectBoundingBox" x2=".79" y1=".746" y2=".413"><stop offset="0" stop-color="#3c7df3"/><stop offset=".461" stop-color="#3892f4"/><stop offset="1" stop-color="#31baf7"/></linearGradient><linearGradient id="b" x1=".5" x2=".5" xlink:href="#a" y1="0" y2="1"/><circle cx="93.188" cy="93.188" fill="url(#a)" r="93.188"/><g transform="translate(46.617 43.817)"><path d="m143.011 180.412h-126.077a6.927 6.927 0 0 1 -6.927-6.927v-156.558a6.927 6.927 0 0 1 6.927-6.927h126.077a6.927 6.927 0 0 1 6.927 6.927v156.558a6.927 6.927 0 0 1 -6.927 6.927z" fill="#fff" transform="translate(-6.536 -6.536)"/><circle cx="73.541" cy="50.908" fill="#f3f3f3" r="28.282"/><path d="m204.018 118.506v2.251a9.006 9.006 0 0 1 -9.006 9.006 9.006 9.006 0 0 1 -9.005-9.006v-2.251a9.006 9.006 0 0 1 9.005-9.006 9.006 9.006 0 0 1 9.006 9.006z" fill="#ffe8dc" transform="translate(-121.576 -71.573)"/><path d="m175.513 168a20.784 20.784 0 0 0 -19.338 13.173 28.38 28.38 0 0 0 38.677 0 20.784 20.784 0 0 0 -19.339-13.173z" fill="url(#b)" transform="translate(-102.077 -109.811)"/><path d="m358.055 143.659 1.979-3.428a11.084 11.084 0 0 1 15.141-4.057 11.084 11.084 0 0 1 4.057 15.141l-43.587 75.495-19.2-11.084 18.8-32.565z" fill="#f3f3f3" transform="translate(-206.836 -88.037)"/><path d="m447.719 136.174a11.084 11.084 0 0 0 -15.141 4.057l-5.146 8.913 19.2 11.084 5.146-8.913a11.084 11.084 0 0 0 -4.059-15.141z" fill="#fb3640" transform="translate(-279.38 -88.036)"/><path d="m329.855 379.74-22.266 16.4 3.068-27.482z" fill="url(#b)" transform="translate(-201.046 -240.966)"/><path d="m143.4 137.967a3.464 3.464 0 0 0 -3.464 3.464v25.517a3.468 3.468 0 0 1 -3.464 3.464h-126.072a3.468 3.468 0 0 1 -3.464-3.464v-156.557a3.468 3.468 0 0 1 3.464-3.464h126.075a3.468 3.468 0 0 1 3.464 3.464v37.667a3.464 3.464 0 0 0 6.927 0v-37.667a10.4 10.4 0 0 0 -10.391-10.391h-126.075a10.4 10.4 0 0 0 -10.393 10.391v156.557a10.4 10.4 0 0 0 10.393 10.391h126.075a10.4 10.4 0 0 0 10.391-10.391v-25.517a3.464 3.464 0 0 0 -3.466-3.464z" fill="#242837"/><path d="m183.738 85.866a31.866 31.866 0 1 0 -53.728 23.161 3.429 3.429 0 0 0 .372.346 31.806 31.806 0 0 0 42.979 0 3.462 3.462 0 0 0 .372-.346 31.778 31.778 0 0 0 10.005-23.161zm-31.865-24.939a24.923 24.923 0 0 1 20.068 39.722 24.029 24.029 0 0 0 -10.2-8.554 12.4 12.4 0 0 0 2.606-7.615v-2.251a12.469 12.469 0 0 0 -24.938 0v2.251a12.4 12.4 0 0 0 2.606 7.615 24.029 24.029 0 0 0 -10.2 8.554 24.923 24.923 0 0 1 20.068-39.722zm-5.542 23.553v-2.251a5.542 5.542 0 0 1 11.084 0v2.251a5.542 5.542 0 0 1 -11.084 0zm-9.522 21.243a17.318 17.318 0 0 1 30.128 0 24.872 24.872 0 0 1 -30.128 0z" transform="translate(-78.436 -35.296)"/><g fill="#242837"><path d="m224.174 438h-18.7a3.464 3.464 0 1 0 0 6.927h18.7a3.464 3.464 0 1 0 0-6.927z" transform="translate(-132.034 -286.292)"/><path d="m166.655 382h-49.184a3.464 3.464 0 1 0 0 6.927h49.184a3.464 3.464 0 1 0 0-6.927z" transform="translate(-74.514 -249.688)"/><path d="m166.655 326h-49.184a3.464 3.464 0 1 0 0 6.927h49.184a3.464 3.464 0 1 0 0-6.927z" transform="translate(-74.514 -213.085)"/><path d="m77.2 271.015a3.461 3.461 0 1 0 1.015 2.449 3.49 3.49 0 0 0 -1.015-2.449z" transform="translate(-46.591 -176.481)"/><path d="m77.2 327.015a3.461 3.461 0 1 0 1.015 2.449 3.5 3.5 0 0 0 -1.015-2.449z" transform="translate(-46.591 -213.085)"/><path d="m74.751 382a3.465 3.465 0 1 0 2.452 1.015 3.5 3.5 0 0 0 -2.452-1.015z" transform="translate(-46.591 -249.688)"/><path d="m166.655 270h-49.184a3.464 3.464 0 1 0 0 6.927h49.184a3.464 3.464 0 1 0 0-6.927z" transform="translate(-74.514 -176.481)"/><path d="m364.581 126.63a14.547 14.547 0 0 0 -19.872 5.325l-43.588 75.495a3.469 3.469 0 0 0 -.443 1.348l-3.068 27.482a3.464 3.464 0 0 0 5.5 3.173l22.266-16.4a3.458 3.458 0 0 0 .946-1.057l43.583-75.496a14.564 14.564 0 0 0 -5.324-19.87zm-57.605 88.2 10.024 5.787-11.627 8.563zm15.075.7-13.2-7.62 34.978-60.583 13.2 7.62zm41.855-72.5-3.414 5.914-13.2-7.62 3.414-5.913a7.62 7.62 0 0 1 13.2 7.62z" transform="translate(-194.51 -81.492)"/></g></g></svg>