<svg height="56.301" viewBox="0 0 39.972 56.301" width="39.972" xmlns="http://www.w3.org/2000/svg"><g fill="#242837" transform="translate(-18.632 -.135)"><path d="m44.776 50.827a5.161 5.161 0 0 0 3.849-1.186.584.584 0 0 0 -.689-.934 8.73 8.73 0 0 1 -2.64 1.1c-.681.108-.872.36-.9.579a.417.417 0 0 0 .38.441z" transform="translate(-14.357 -27.143)"/><path d="m45.3 51.1a5.435 5.435 0 0 1 -.551-.028.665.665 0 0 1 -.6-.7v-.013c.032-.288.248-.66 1.1-.8a8.461 8.461 0 0 0 2.551-1.059h.007a.834.834 0 0 1 .983 1.335l-.007.006a5.419 5.419 0 0 1 -3.483 1.259zm-.652-.695a.167.167 0 0 0 .151.169 4.911 4.911 0 0 0 3.659-1.125.327.327 0 0 0 .044-.427.329.329 0 0 0 -.438-.1 8.96 8.96 0 0 1 -2.712 1.132h-.018c-.412.069-.661.197-.684.356z" transform="translate(-14.357 -27.143)"/><path d="m77.546 50.827a5.161 5.161 0 0 1 -3.846-1.185.584.584 0 0 1 .689-.934 8.729 8.729 0 0 0 2.64 1.1c.681.108.872.36.9.579a.417.417 0 0 1 -.383.44z" transform="translate(-30.734 -27.143)"/><path d="m77.02 51.1a5.419 5.419 0 0 1 -3.484-1.271l-.007-.006a.834.834 0 0 1 .983-1.335h.007a8.461 8.461 0 0 0 2.556 1.069c.848.138 1.064.509 1.1.8v.013a.666.666 0 0 1 -.6.7 5.427 5.427 0 0 1 -.555.03zm-3.158-1.65a4.91 4.91 0 0 0 3.658 1.125.167.167 0 0 0 .152-.169c-.024-.159-.273-.287-.686-.353h-.018a8.96 8.96 0 0 1 -2.712-1.132.334.334 0 0 0 -.395.532z" transform="translate(-30.734 -27.143)"/><path d="m99.612 85.94a.656.656 0 0 1 -.644-.536c-.044-.239-.116-.33-.148-.345a.91.91 0 0 0 -.612.168 1.789 1.789 0 0 1 -2.388-.744.656.656 0 1 1 1.107-.7c.03.044.33.481.622.314a2.078 2.078 0 0 1 1.819-.227 1.639 1.639 0 0 1 .891 1.3.656.656 0 0 1 -.525.765.632.632 0 0 1 -.121.011z" transform="translate(-43.229 -46.749)"/><path d="m99.618 86.19h-.008a.906.906 0 0 1 -.888-.74.935.935 0 0 0 -.036-.142.655.655 0 0 0 -.333.123l-.02.013a1.811 1.811 0 0 1 -.919.258 2.268 2.268 0 0 1 -1.806-1.084.906.906 0 0 1 1.526-.977c.1.149.223.24.275.24a.022.022 0 0 0 .011 0 2.327 2.327 0 0 1 2.029-.248l.031.013a1.881 1.881 0 0 1 1.026 1.485.907.907 0 0 1 -.727 1.046.885.885 0 0 1 -.161.013zm-.879-1.384h.1.042l.039.017c.175.079.255.331.291.527a.406.406 0 0 0 .4.331l.006.25v-.25a.383.383 0 0 0 .07-.006.406.406 0 0 0 .325-.473v-.02a1.383 1.383 0 0 0 -.74-1.092 1.828 1.828 0 0 0 -1.584.205l-.013.008a.524.524 0 0 1 -.264.071.934.934 0 0 1 -.688-.459l-.006-.009a.406.406 0 1 0 -.685.436 1.776 1.776 0 0 0 1.384.852 1.315 1.315 0 0 0 .658-.185 1.153 1.153 0 0 1 .665-.203z" transform="translate(-43.229 -46.749)"/><path d="m94.85 93.918a.656.656 0 0 1 -.607-.9c.091-.225.08-.34.062-.37a.91.91 0 0 0 -.607-.19 1.789 1.789 0 0 1 -1.607-1.917.656.656 0 0 1 .656-.653.656.656 0 0 1 .653.659c0 .055.017.585.354.6a2.08 2.08 0 0 1 1.653.793 1.638 1.638 0 0 1 .048 1.572.656.656 0 0 1 -.605.406z" transform="translate(-41.189 -50.355)"/><path d="m94.851 94.168a.906.906 0 0 1 -.838-1.248.959.959 0 0 0 .046-.139.662.662 0 0 0 -.346-.077h-.025a2.032 2.032 0 0 1 -1.846-2.168.906.906 0 0 1 1.812.008c0 .13.051.34.112.349h.01a2.317 2.317 0 0 1 1.831.888l.019.028a1.879 1.879 0 0 1 .06 1.8.9.9 0 0 1 -.835.559zm-1.1-1.964a1.165 1.165 0 0 1 .711.244l.034.026.023.036a.715.715 0 0 1 -.04.6.406.406 0 1 0 .751.307l.009-.019a1.381 1.381 0 0 0 -.032-1.318 1.819 1.819 0 0 0 -1.427-.684h-.03c-.409-.019-.592-.44-.592-.85a.406.406 0 1 0 -.812 0 1.548 1.548 0 0 0 1.354 1.654z" transform="translate(-41.189 -50.355)"/><path d="m62.078 59.771c-.3 0-1.5.185-1.5 1.039a.656.656 0 0 0 1.217.341.621.621 0 0 1 .564 0 .656.656 0 0 0 1.217-.341c.001-.854-1.201-1.039-1.498-1.039z" transform="translate(-23.46 -33.412)"/><path d="m62.078 59.521c.369 0 1.749.219 1.749 1.289a.906.906 0 0 1 -1.632.542.375.375 0 0 0 -.233 0 .906.906 0 0 1 -1.632-.542c-.001-1.07 1.378-1.289 1.748-1.289zm.843 1.7a.406.406 0 0 0 .406-.406c0-.644-1.055-.789-1.249-.789s-1.249.145-1.249.789a.406.406 0 0 0 .753.211l.037-.061.063-.032a.886.886 0 0 1 .791 0l.063.032.037.061a.408.408 0 0 0 .348.19z" transform="translate(-23.46 -33.412)"/><path d="m63.156 74.546a2.794 2.794 0 0 1 -1.8-.843 3.594 3.594 0 0 1 -1.325-2.943 1.833 1.833 0 0 1 1.719-1.477 3.229 3.229 0 0 1 2.63 1.786l.046.073a2.7 2.7 0 0 1 .306 2.286 1.727 1.727 0 0 1 -1.181 1.065 1.474 1.474 0 0 1 -.395.053zm-1.834-3.546a2.462 2.462 0 0 0 .922 1.733c.465.426.834.525.957.494a.412.412 0 0 0 .306-.268 1.408 1.408 0 0 0 -.185-1.111l-.05-.078c-.379-.6-.808-1.178-1.522-1.178-.247 0-.411.309-.43.407z" transform="translate(-23.134 -38.764)"/><path d="m63.158 74.8h-.02a3.041 3.041 0 0 1 -1.956-.913 3.837 3.837 0 0 1 -1.4-3.168 2.079 2.079 0 0 1 1.954-1.681h.011a3.449 3.449 0 0 1 2.84 1.9l.047.074a2.943 2.943 0 0 1 .333 2.5v.012a1.98 1.98 0 0 1 -1.352 1.219 1.717 1.717 0 0 1 -.457.057zm-1.4-5.263a1.579 1.579 0 0 0 -1.479 1.276 3.4 3.4 0 0 0 1.248 2.71l.011.01a2.542 2.542 0 0 0 1.63.767 1.225 1.225 0 0 0 .319-.044 1.481 1.481 0 0 0 1.011-.905 2.445 2.445 0 0 0 -.28-2.069l-.047-.075a3.013 3.013 0 0 0 -2.416-1.674zm1.4 3.952a1.854 1.854 0 0 1 -1.077-.565 3.16 3.16 0 0 1 -1-1.673h-.048l.053-.289a.791.791 0 0 1 .675-.611c.841 0 1.335.668 1.733 1.294l.049.076a1.662 1.662 0 0 1 .217 1.308l-.006.022a.666.666 0 0 1 -.488.429.459.459 0 0 1 -.114.005zm-1.583-2.442v.006a2.32 2.32 0 0 0 .845 1.5 1.478 1.478 0 0 0 .738.434.163.163 0 0 0 .117-.1 1.161 1.161 0 0 0 -.155-.9l-.051-.078c-.357-.561-.724-1.064-1.312-1.064-.069.001-.163.129-.188.198z" transform="translate(-23.134 -38.764)"/><path d="m75.809 58.762a.656.656 0 0 1 -.279-.063 7.529 7.529 0 0 0 -2.838-.676.656.656 0 1 1 -.04-1.312 8.6 8.6 0 0 1 3.438.8.656.656 0 0 1 -.281 1.249z" transform="translate(-29.895 -31.69)"/><path d="m75.809 59.012a.912.912 0 0 1 -.385-.086 7.241 7.241 0 0 0 -2.733-.652.906.906 0 0 1 -.046-1.812h.013a8.793 8.793 0 0 1 3.538.824.907.907 0 0 1 -.137 1.692v.034zm-.026-.5h.027a.406.406 0 0 0 .174-.773 8.293 8.293 0 0 0 -3.329-.777.406.406 0 0 0 .018.812h.03a7.742 7.742 0 0 1 2.932.7.415.415 0 0 0 .148.037z" transform="translate(-29.895 -31.69)"/><path d="m46.478 58.763a.656.656 0 0 1 -.281-1.249 8.7 8.7 0 0 1 3.438-.8.656.656 0 0 1 .636.675.649.649 0 0 1 -.676.636 7.55 7.55 0 0 0 -2.838.676.652.652 0 0 1 -.279.062z" transform="translate(-15.157 -31.691)"/><path d="m46.478 59.013a.906.906 0 0 1 -.387-1.725 8.9 8.9 0 0 1 3.539-.825h.014a.909.909 0 0 1 .6 1.567.9.9 0 0 1 -.642.244 7.264 7.264 0 0 0 -2.735.653.9.9 0 0 1 -.389.086zm3.155-2.05a8.4 8.4 0 0 0 -3.331.778.406.406 0 0 0 .176.772.405.405 0 0 0 .172-.039 7.767 7.767 0 0 1 2.935-.7h.02a.4.4 0 0 0 .415-.391.407.407 0 0 0 -.387-.42z" transform="translate(-15.157 -31.691)"/><path d="m57.259 21.465a4.661 4.661 0 0 0 1.071-3.472c-.578-8.143-9.323-17.608-19.73-17.608-10.389 0-19.116 9.465-19.694 17.608a4.659 4.659 0 0 0 1.069 3.473 2.668 2.668 0 0 0 1.348.8 28.806 28.806 0 0 0 .822 3.49 3.939 3.939 0 0 0 -.769 4.477 5.175 5.175 0 0 0 2.657 2.84 4.1 4.1 0 0 0 1.69.377 3.642 3.642 0 0 0 .615-.053 14.033 14.033 0 0 0 8.082 8.1c-.2 1.929-.791 2.078-1.656 2.292a6.535 6.535 0 0 0 -.843.252 34.5 34.5 0 0 0 -3.9 1.807 28.367 28.367 0 0 0 -4.248 2.819 2.613 2.613 0 0 0 .35 4.29c2.566 1.47 7.165 3.221 14.5 3.221s11.943-1.753 14.516-3.222a2.613 2.613 0 0 0 .35-4.292 28.4 28.4 0 0 0 -4.243-2.816 34.521 34.521 0 0 0 -3.9-1.807 6.55 6.55 0 0 0 -.843-.252c-.866-.214-1.457-.363-1.657-2.3a15.239 15.239 0 0 0 4.237-2.578h.054a4.788 4.788 0 0 0 4.763-5.089c-.009-.136-.033-.27-.053-.4a4.116 4.116 0 0 0 1.364-.354 5.172 5.172 0 0 0 2.656-2.839 3.939 3.939 0 0 0 -.77-4.482 27.663 27.663 0 0 0 .819-3.485 2.664 2.664 0 0 0 1.351-.8zm-32.684 10.418a3.893 3.893 0 0 1 -1.968-2.106c-.531-1.411-.271-2.65.691-3.243a2.727 2.727 0 0 1 1.824-.365c.037.594.081 1.171.131 1.714a2.624 2.624 0 0 0 -.911-.2.656.656 0 0 0 -.63.681.647.647 0 0 0 .677.63 1.941 1.941 0 0 1 1.032.476c.087.661.291 1.781.513 2.663a2.721 2.721 0 0 1 -1.358-.252zm.476-7.035a4.191 4.191 0 0 0 -1.75.23c-.246-.808-.488-1.965-.643-2.794a6.089 6.089 0 0 0 2.354-.732c-.027 1.035-.01 2.17.037 3.294zm21.83 21.288c.6.281 1.178.569 1.726.869a27.074 27.074 0 0 1 4.044 2.681 1.3 1.3 0 0 1 -.172 2.135c-2.435 1.391-6.817 3.05-13.865 3.05s-11.414-1.657-13.845-3.048a1.3 1.3 0 0 1 -.17-2.134 26.185 26.185 0 0 1 3.384-2.31c.212 1.326 1.284 2.434 3.083 3.127a12.553 12.553 0 0 0 4.439.735c4.02 0 8.728-1.52 11.376-5.1zm-2.706-1.068a5.34 5.34 0 0 1 .676.2c.27.107.528.214.787.322-3.428 4.359-10.344 5.143-14.1 3.692-.924-.356-2.414-1.162-2.266-2.6.956-.492 1.984-.957 3.129-1.41a5.383 5.383 0 0 1 .676-.2c1.268-.314 2.279-.769 2.606-3.135a10.817 10.817 0 0 0 2.934.463 10.85 10.85 0 0 0 2.951-.468c.325 2.37 1.335 2.825 2.605 3.14zm6.348-15.846c-.044.342-.125.834-.224 1.347a4.712 4.712 0 0 0 -1.062-.716.656.656 0 1 0 -.578 1.178 3.467 3.467 0 0 1 -3.063 6.22.656.656 0 1 0 -.579 1.177c.121.059.245.107.369.156a13.979 13.979 0 0 1 -3.5 1.871 10.066 10.066 0 0 1 -3.267.631 10.07 10.07 0 0 1 -3.269-.632 12.746 12.746 0 0 1 -7.974-8.044 22.675 22.675 0 0 1 -.661-3.188 54.038 54.038 0 0 1 -.345-8.739 2.225 2.225 0 0 0 .19.2 4.1 4.1 0 0 0 3.6.6 4.716 4.716 0 0 0 3.4-2.368l.032.034a8.546 8.546 0 0 0 4.993 1.984h.025a8.671 8.671 0 0 0 5.035-1.984c.011-.011.021-.022.031-.034a4.716 4.716 0 0 0 3.4 2.368 4.093 4.093 0 0 0 3.6-.6 2.325 2.325 0 0 0 .191-.2 54.025 54.025 0 0 1 -.342 8.742zm4.107.553a3.888 3.888 0 0 1 -1.968 2.1 2.815 2.815 0 0 1 -1.152.254.168.168 0 0 1 -.159-.21c.2-.836.377-1.822.46-2.434a1.84 1.84 0 0 1 1.034-.5.657.657 0 1 0 .051-1.312 2.493 2.493 0 0 0 -.91.19c.049-.54.093-1.114.131-1.706a2.744 2.744 0 0 1 1.837.373c.947.583 1.207 1.823.675 3.235zm-2.406-8.223a6.063 6.063 0 0 0 2.348.729 28.427 28.427 0 0 1 -.642 2.8 4.207 4.207 0 0 0 -1.745-.23c.046-1.126.063-2.261.038-3.3zm3.127-.535a4.29 4.29 0 0 1 -3.337-1.317 2.4 2.4 0 0 1 -.52-1.118.656.656 0 0 0 -1.3.169 1.312 1.312 0 0 1 -.394.956 2.986 2.986 0 0 1 -2.482.287 3.329 3.329 0 0 1 -2.862-2.833c0-.005 0-.009 0-.014a.656.656 0 0 0 -1.305.073 1.184 1.184 0 0 1 -.424.8 7.34 7.34 0 0 1 -4.093 1.6h-.036a7.331 7.331 0 0 1 -4.076-1.6 1.186 1.186 0 0 1 -.424-.8.656.656 0 0 0 -1.3-.073.087.087 0 0 0 0 .014 3.33 3.33 0 0 1 -2.864 2.834 3.011 3.011 0 0 1 -2.473-.279 1.3 1.3 0 0 1 -.409-.965.656.656 0 0 0 -1.3-.168 2.5 2.5 0 0 1 -.517 1.129 4.361 4.361 0 0 1 -3.377 1.309 1.268 1.268 0 0 1 -.907-.445 3.392 3.392 0 0 1 -.72-2.486c.524-7.581 8.669-16.39 18.369-16.39 9.721 0 17.887 8.81 18.425 16.389a3.388 3.388 0 0 1 -.723 2.485 1.265 1.265 0 0 1 -.9.446z"/><path d="m38.6.135a18.439 18.439 0 0 1 7.495 1.627 21.919 21.919 0 0 1 6.231 4.192c3.627 3.448 5.966 7.94 6.256 12.017a4.937 4.937 0 0 1 -1.128 3.654l-.006.006a2.9 2.9 0 0 1 -1.317.837 28.035 28.035 0 0 1 -.754 3.208 4.244 4.244 0 0 1 .72 4.648 5.4 5.4 0 0 1 -2.788 2.976 4.358 4.358 0 0 1 -1.184.346c.007.055.013.111.017.169a5.039 5.039 0 0 1 -4.978 5.355 15.453 15.453 0 0 1 -4.056 2.485c.194 1.587.648 1.7 1.447 1.9a6.8 6.8 0 0 1 .87.26 34.91 34.91 0 0 1 3.934 1.821 28.729 28.729 0 0 1 4.28 2.841 2.863 2.863 0 0 1 -.382 4.7c-2.6 1.485-7.251 3.255-14.64 3.255s-12.03-1.766-14.617-3.251a2.863 2.863 0 0 1 -.384-4.7 28.7 28.7 0 0 1 4.284-2.845 34.879 34.879 0 0 1 3.93-1.82 6.817 6.817 0 0 1 .879-.263c.794-.2 1.246-.308 1.441-1.888a14.221 14.221 0 0 1 -7.976-7.989 3.9 3.9 0 0 1 -.451.027 4.324 4.324 0 0 1 -1.795-.4 5.4 5.4 0 0 1 -2.786-2.978 4.248 4.248 0 0 1 .718-4.644 29.182 29.182 0 0 1 -.757-3.214 2.905 2.905 0 0 1 -1.314-.835l-.006-.007a4.934 4.934 0 0 1 -1.126-3.655c.29-4.077 2.625-8.568 6.244-12.016a21.872 21.872 0 0 1 6.218-4.192 18.365 18.365 0 0 1 7.481-1.627zm18.471 21.165a4.435 4.435 0 0 0 1.011-3.282v-.008c-.281-3.957-2.562-8.328-6.1-11.694a19.559 19.559 0 0 0 -13.382-5.681 19.5 19.5 0 0 0 -13.354 5.681c-3.533 3.366-5.81 7.737-6.091 11.694v.008a4.432 4.432 0 0 0 1.008 3.282 2.409 2.409 0 0 0 1.219.725l.16.039.028.162a28.661 28.661 0 0 0 .815 3.46l.046.154-.12.106a3.718 3.718 0 0 0 -.7 4.2 4.9 4.9 0 0 0 2.528 2.7 3.825 3.825 0 0 0 1.586.354 3.4 3.4 0 0 0 .57-.049l.206-.035.072.2a13.741 13.741 0 0 0 7.94 7.958l.175.07-.02.188c-.208 2-.837 2.259-1.845 2.509a6.332 6.332 0 0 0 -.816.243 34.369 34.369 0 0 0 -3.87 1.792 28.19 28.19 0 0 0 -4.211 2.794 2.363 2.363 0 0 0 .318 3.878c2.539 1.454 7.095 3.188 14.374 3.188s11.844-1.736 14.391-3.19a2.363 2.363 0 0 0 .316-3.881 28.223 28.223 0 0 0 -4.2-2.79 34.4 34.4 0 0 0 -3.874-1.794 6.313 6.313 0 0 0 -.807-.241c-1.014-.251-1.643-.506-1.85-2.517l-.019-.187.174-.07a14.959 14.959 0 0 0 4.167-2.536l.07-.06h.093.048.009a4.539 4.539 0 0 0 4.511-4.823c-.006-.1-.022-.2-.038-.3l-.013-.084-.04-.264.266-.022a3.855 3.855 0 0 0 1.281-.332 4.9 4.9 0 0 0 2.526-2.7 3.713 3.713 0 0 0 -.7-4.2l-.121-.106.047-.154a27.513 27.513 0 0 0 .812-3.454l.027-.163.16-.039a2.4 2.4 0 0 0 1.217-.729zm-18.471-19.851a17.281 17.281 0 0 1 7 1.516 20.484 20.484 0 0 1 5.823 3.9c3.389 3.212 5.574 7.4 5.846 11.2a3.615 3.615 0 0 1 -.776 2.663v.005a1.52 1.52 0 0 1 -1.084.534h-.056a4.549 4.549 0 0 1 -3.532-1.411 2.655 2.655 0 0 1 -.572-1.233.405.405 0 0 0 -.4-.332.413.413 0 0 0 -.053 0 .406.406 0 0 0 -.353.434v.016a1.569 1.569 0 0 1 -.469 1.138l-.008.007a2.267 2.267 0 0 1 -1.55.465 6.272 6.272 0 0 1 -1.138-.117 3.591 3.591 0 0 1 -3.067-3.022.266.266 0 0 1 -.007-.031v-.001a.406.406 0 0 0 -.808.045v.016a1.425 1.425 0 0 1 -.5.96 7.607 7.607 0 0 1 -4.261 1.668h-.036a7.581 7.581 0 0 1 -4.249-1.669 1.426 1.426 0 0 1 -.5-.96v-.015a.406.406 0 0 0 -.808-.045v.034.009a3.592 3.592 0 0 1 -3.068 3.015 6.243 6.243 0 0 1 -1.137.117 2.29 2.29 0 0 1 -1.54-.454l-.007-.006a1.552 1.552 0 0 1 -.487-1.151v-.014a.406.406 0 0 0 -.353-.433.412.412 0 0 0 -.053 0 .406.406 0 0 0 -.4.332 2.757 2.757 0 0 1 -.568 1.241 4.628 4.628 0 0 1 -3.57 1.4h-.014a1.524 1.524 0 0 1 -1.086-.532l-.005-.006a3.619 3.619 0 0 1 -.774-2.665c.271-3.8 2.452-7.983 5.833-11.2a20.437 20.437 0 0 1 5.809-3.9 17.207 17.207 0 0 1 6.978-1.518zm17.509 18.965a3.118 3.118 0 0 0 .667-2.3v-.009c-.261-3.679-2.389-7.743-5.691-10.873a18.275 18.275 0 0 0 -12.485-5.283 18.211 18.211 0 0 0 -12.454 5.283c-3.3 3.13-5.418 7.194-5.679 10.873v.01a3.122 3.122 0 0 0 .665 2.3 1.022 1.022 0 0 0 .719.354 4.134 4.134 0 0 0 3.178-1.216 2.257 2.257 0 0 0 .465-1.016.906.906 0 0 1 .89-.743.916.916 0 0 1 .117.007.906.906 0 0 1 .788.957 1.05 1.05 0 0 0 .327.77 1.858 1.858 0 0 0 1.207.328 5.758 5.758 0 0 0 1.052-.11h.014a3.09 3.09 0 0 0 2.649-2.621l.005-.026v-.015a.911.911 0 0 1 .943-.747.9.9 0 0 1 .855.864.93.93 0 0 0 .334.624l.017.015a7.058 7.058 0 0 0 3.9 1.531h.036a7.086 7.086 0 0 0 3.917-1.531l.017-.015a.928.928 0 0 0 .338-.625.9.9 0 0 1 .855-.867.91.91 0 0 1 .943.748.263.263 0 0 1 .01.049 3.089 3.089 0 0 0 2.646 2.614h.014a5.785 5.785 0 0 0 1.053.109 1.837 1.837 0 0 0 1.212-.333 1.067 1.067 0 0 0 .315-.763.906.906 0 0 1 .787-.959.915.915 0 0 1 .117-.008.905.905 0 0 1 .891.743 2.156 2.156 0 0 0 .466 1 4.054 4.054 0 0 0 3.145 1.225h.036a1.018 1.018 0 0 0 .719-.344zm-12.379-1.919.164.3a4.437 4.437 0 0 0 3.22 2.243h.008a7.092 7.092 0 0 0 1.293.131 3.035 3.035 0 0 0 2.092-.672 2.073 2.073 0 0 0 .168-.175l.413-.485.027.637a54.439 54.439 0 0 1 -.343 8.782c-.046.357-.128.853-.227 1.364l-.083.433-.329-.294a4.462 4.462 0 0 0 -1.006-.678.406.406 0 0 0 -.543.186.407.407 0 0 0 .186.543 3.727 3.727 0 0 1 2.064 3.1 3.715 3.715 0 0 1 -5.347 3.57h-.005a.412.412 0 0 0 -.411.021.406.406 0 0 0 .053.708h.006c.1.049.2.09.312.133l.459.181-.365.268a14.223 14.223 0 0 1 -3.565 1.9 10.29 10.29 0 0 1 -3.346.646h-.012a10.3 10.3 0 0 1 -3.35-.648 13.006 13.006 0 0 1 -8.125-8.2v-.007a23 23 0 0 1 -.669-3.223 54.458 54.458 0 0 1 -.347-8.783l.027-.637.414.485a1.984 1.984 0 0 0 .169.175 3.04 3.04 0 0 0 2.092.67 7.074 7.074 0 0 0 1.293-.131h.008a4.437 4.437 0 0 0 3.22-2.243l.161-.29.234.234.023.024.009.01a8.277 8.277 0 0 0 4.816 1.91h.024a8.458 8.458 0 0 0 4.86-1.911l.009-.01.018-.02zm-5.12 2.685h-.026a8.939 8.939 0 0 1 -4.971-1.872 4.931 4.931 0 0 1 -3.413 2.219 7.568 7.568 0 0 1 -1.381.139 3.668 3.668 0 0 1 -2.221-.631 53.963 53.963 0 0 0 .363 8.158 22.493 22.493 0 0 0 .653 3.146 12.511 12.511 0 0 0 7.819 7.88 9.8 9.8 0 0 0 3.185.617 9.794 9.794 0 0 0 3.179-.615 13.73 13.73 0 0 0 3.082-1.582.906.906 0 1 1 .831-1.61 3.217 3.217 0 0 0 2.839-5.773.906.906 0 0 1 .4-1.719.9.9 0 0 1 .4.093 4.963 4.963 0 0 1 .783.48c.062-.348.113-.669.145-.918a53.947 53.947 0 0 0 .36-8.158 3.661 3.661 0 0 1 -2.221.633 7.586 7.586 0 0 1 -1.381-.139 4.93 4.93 0 0 1 -3.412-2.219 9.147 9.147 0 0 1 -5.01 1.871zm-13.336-.058-.011.437c-.025.96-.014 2.035.033 3.2l.312.389-.577-.045c-.106-.009-.214-.013-.321-.013a3.93 3.93 0 0 0 -1.324.229l-.247.088-.076-.251c-.274-.9-.525-2.153-.65-2.821l-.05-.268.272-.027a5.806 5.806 0 0 0 2.258-.7zm-.485 3.463c-.035-.935-.046-1.814-.035-2.621a6.286 6.286 0 0 1 -1.8.536c.11.564.3 1.507.515 2.261a4.42 4.42 0 0 1 1.32-.176zm27.558-3.25a5.78 5.78 0 0 0 2.251.7l.271.026-.05.268c-.125.673-.375 1.934-.648 2.823l-.077.25-.246-.087a3.946 3.946 0 0 0 -1.325-.229c-.1 0-.211 0-.316.013l-.281.023.012-.282c.049-1.189.062-2.293.038-3.28l.288-.071zm1.931 1.165a6.26 6.26 0 0 1 -1.8-.534c.011.809 0 1.688-.035 2.62a4.436 4.436 0 0 1 1.317.176c.211-.731.399-1.641.518-2.262zm-1.754 3.389a2.993 2.993 0 0 1 1.562.44c1.057.65 1.355 2.005.779 3.536a4.123 4.123 0 0 1 -2.1 2.243 3.049 3.049 0 0 1 -1.256.278h-.009a.418.418 0 0 1 -.394-.521c.2-.857.379-1.849.454-2.406l.012-.087.063-.06a2.077 2.077 0 0 1 1.175-.563h.021.021a.407.407 0 0 0 .038-.812 2.234 2.234 0 0 0 -.811.171l-.382.158.037-.412c.047-.521.091-1.093.131-1.7l.013-.2.2-.03a3 3 0 0 1 .446-.036zm-.9 5.994a2.546 2.546 0 0 0 .939-.229 3.622 3.622 0 0 0 1.837-1.969c.485-1.29.266-2.414-.573-2.931a2.493 2.493 0 0 0 -1.47-.36c-.027.391-.055.767-.085 1.124a2.735 2.735 0 0 1 .624-.083h.014a.907.907 0 0 1 -.047 1.812 1.578 1.578 0 0 0 -.813.369c-.083.571-.241 1.455-.43 2.266zm-26.911-5.995a2.986 2.986 0 0 1 .447.034l.2.03.012.2c.037.593.081 1.167.131 1.706l.038.413-.383-.159a2.366 2.366 0 0 0 -.814-.179.407.407 0 0 0 -.381.421.4.4 0 0 0 .126.284.4.4 0 0 0 .289.106h.022.022a2.183 2.183 0 0 1 1.165.537l.069.062.012.092c.085.645.287 1.757.507 2.635l.072.288-.3.022a3 3 0 0 1 -1.483-.275 4.126 4.126 0 0 1 -2.095-2.241c-.577-1.533-.273-2.89.793-3.547a2.978 2.978 0 0 1 1.551-.429zm.173.506a2.478 2.478 0 0 0 -1.458.353c-.847.522-1.073 1.649-.587 2.941a3.626 3.626 0 0 0 1.841 1.968 2.488 2.488 0 0 0 .935.233c-.185-.792-.348-1.7-.431-2.289a1.684 1.684 0 0 0 -.811-.354.9.9 0 0 1 -.913-.875.906.906 0 0 1 .87-.937h.019a2.867 2.867 0 0 1 .619.09c-.03-.364-.059-.742-.084-1.13zm16.893 15.206.04.291c.307 2.237 1.193 2.627 2.411 2.93a5.609 5.609 0 0 1 .708.208h.006c.283.112.565.23.792.324l.3.127-.2.259a11.091 11.091 0 0 1 -4.715 3.4 15.158 15.158 0 0 1 -5.557 1.061 11.592 11.592 0 0 1 -4.113-.683c-.976-.376-2.59-1.248-2.425-2.863l.014-.135.121-.062c.983-.506 2.014-.97 3.152-1.42h.006a5.652 5.652 0 0 1 .705-.208c1.18-.292 2.107-.695 2.416-2.926l.04-.29.28.085a10.566 10.566 0 0 0 2.862.452 10.6 10.6 0 0 0 2.878-.458zm2.37 3.715-.03-.007c-1.224-.3-2.354-.77-2.749-3.063a11.1 11.1 0 0 1 -2.743.4h-.01a11.066 11.066 0 0 1 -2.726-.394c-.4 2.288-1.527 2.756-2.75 3.058h-.005a5.15 5.15 0 0 0 -.642.189c-1.073.424-2.048.861-2.978 1.334-.026 1.2 1.3 1.9 2.116 2.214a11.092 11.092 0 0 0 3.934.649c3.068 0 7.173-1.059 9.67-4.006-.15-.062-.31-.127-.47-.191a5.11 5.11 0 0 0 -.618-.18zm2.654.505.185.086c.625.291 1.195.577 1.741.876a27.394 27.394 0 0 1 4.081 2.705 1.551 1.551 0 0 1 -.2 2.547c-2.463 1.407-6.888 3.083-13.99 3.083s-11.52-1.671-13.975-3.077a1.551 1.551 0 0 1 -.2-2.545 26.525 26.525 0 0 1 3.418-2.333l.314-.18.057.357c.2 1.241 1.237 2.282 2.924 2.933a12.269 12.269 0 0 0 4.348.719c3.619 0 8.454-1.314 11.179-5zm-8.186 8.8c6.992 0 11.332-1.641 13.741-3.017a1.051 1.051 0 0 0 .138-1.724 26.891 26.891 0 0 0 -4.005-2.655c-.484-.265-.986-.519-1.53-.776a12.418 12.418 0 0 1 -5.161 3.816 16.679 16.679 0 0 1 -6.3 1.227h-.2a12.767 12.767 0 0 1 -4.321-.751h-.006a4.787 4.787 0 0 1 -3.164-2.972 26.029 26.029 0 0 0 -3.057 2.116 1.051 1.051 0 0 0 .139 1.723c2.409 1.375 6.735 3.014 13.725 3.014z"/></g></svg>