<svg height="189.167" viewBox="0 0 191.182 189.167" width="191.182" xmlns="http://www.w3.org/2000/svg" xmlns:xlink="http://www.w3.org/1999/xlink"><linearGradient id="a" gradientUnits="objectBoundingBox" x1=".136" x2=".813" y1=".837" y2=".365"><stop offset="0" stop-color="#3c7df3"/><stop offset=".461" stop-color="#3892f4"/><stop offset="1" stop-color="#31baf7"/></linearGradient><ellipse cx="5.864" cy="50.904" fill="#242837" rx="5.864" ry="6.223"/><circle cx="76.33" cy="76.33" fill="url(#a)" r="76.33" transform="translate(38.521)"/><circle cx="178.742" cy="123.562" fill="#242837" r="3.548"/><path d="m111.485 185.163v36.95a11.172 11.172 0 0 1 -11.172 11.172 11 11 0 0 1 -10.241-6.7c-5.109-12.558-6.237-30.276-6.323-43.24a42.489 42.489 0 0 0 -1.607-9.867c-2.39-9.121-7-17.412-12.487-25.084a40.927 40.927 0 0 1 57.565-56.757 4.306 4.306 0 0 0 5.1 0 40.933 40.933 0 0 1 57.562 56.763c-5.483 7.671-10.1 15.963-12.487 25.084a42.539 42.539 0 0 0 -1.607 9.868c-.086 12.957-1.213 30.662-6.314 43.218a11.028 11.028 0 0 1 -10.274 6.72 11.209 11.209 0 0 1 -11.209-11.209v-36.918a18.253 18.253 0 1 0 -36.505 0z" fill="#fff" transform="translate(-43.096 -47.436)"/><g fill="#242837"><path d="m158.521 235.922a14.545 14.545 0 0 1 -14.529-14.528v-36.912a14.934 14.934 0 0 0 -29.868 0v36.95a14.507 14.507 0 0 1 -14.49 14.49 14.225 14.225 0 0 1 -13.317-8.765c-4.226-10.4-6.437-25.358-6.566-44.467a38.817 38.817 0 0 0 -1.5-9.048c-2.016-7.689-5.934-15.537-11.979-24a44.247 44.247 0 0 1 62.236-61.361.982.982 0 0 0 1.157 0 44.252 44.252 0 0 1 62.236 61.36c-6.044 8.46-9.963 16.308-11.976 24a38.7 38.7 0 0 0 -1.5 9.05c-.129 19.1-2.336 34.051-6.556 44.444a14.259 14.259 0 0 1 -13.349 8.789zm-29.463-73.012a21.6 21.6 0 0 1 21.572 21.572v36.912a7.9 7.9 0 0 0 7.892 7.89 7.748 7.748 0 0 0 7.2-4.65c3.851-9.473 5.95-23.993 6.07-41.989a45 45 0 0 1 1.717-10.689c2.22-8.482 6.472-17.042 13-26.171a37.609 37.609 0 0 0 -52.894-52.159 7.687 7.687 0 0 1 -9.039 0 37.615 37.615 0 0 0 -52.894 52.16c6.524 9.126 10.776 17.687 13 26.171a45.074 45.074 0 0 1 1.714 10.687c.12 18.007 2.224 32.534 6.08 42.012a7.711 7.711 0 0 0 7.166 4.628 7.862 7.862 0 0 0 7.853-7.853v-36.949a21.6 21.6 0 0 1 21.563-21.572z" transform="translate(-42.415 -46.755)"/><circle cx="106.554" cy="74.671" r="3.826"/><circle cx="60.092" cy="74.671" r="3.826"/><path d="m5.721 12.56a11.649 11.649 0 0 1 -3.354-.5 3.319 3.319 0 1 1 1.9-6.359 4.922 4.922 0 0 0 3.792-.384 4.938 4.938 0 0 0 2.412-2.947 3.319 3.319 0 1 1 6.359 1.9 11.542 11.542 0 0 1 -5.619 6.89 11.539 11.539 0 0 1 -5.49 1.4z" transform="matrix(.914 .407 -.407 .914 81.476 89.719)"/></g><circle cx="143.06" cy="41.484" fill="#f3f3f3" r="34.846"/><path d="m203.8 120.33a38.165 38.165 0 1 1 38.165-38.165 38.209 38.209 0 0 1 -38.165 38.165zm0-69.693a31.528 31.528 0 1 0 31.528 31.528 31.564 31.564 0 0 0 -31.528-31.528z" fill="#242837" transform="translate(-60.74 -40.681)"/><path d="m26.02 18.653a9.887 9.887 0 1 0 -14.378 0c-4.942 2.758-7.642 8.598-7.642 16.716a1.236 1.236 0 0 0 1.236 1.231h27.189a1.235 1.235 0 0 0 1.236-1.236c0-8.114-2.7-13.953-7.641-16.711zm-7.189-14.181a7.415 7.415 0 1 1 -7.415 7.415 7.423 7.423 0 0 1 7.415-7.415zm-12.337 29.661c.194-5.233 1.715-11.361 7.271-13.771a9.79 9.79 0 0 0 10.132 0c5.554 2.409 7.077 8.539 7.269 13.771z" fill="#232736" transform="translate(124.23 20.522)"/><path d="m18.831 1.5a10.371 10.371 0 0 1 7.969 17.031 14.066 14.066 0 0 1 5.351 6.261 25.357 25.357 0 0 1 2.013 10.576 1.738 1.738 0 0 1 -1.739 1.732h-27.189a1.738 1.738 0 0 1 -1.736-1.731 25.357 25.357 0 0 1 2.013-10.576 14.066 14.066 0 0 1 5.351-6.262 10.371 10.371 0 0 1 7.967-17.031zm13.594 34.6a.737.737 0 0 0 .736-.736c0-7.954-2.554-13.583-7.385-16.279l-.56-.312.44-.467a9.387 9.387 0 1 0 -13.65 0l.44.467-.56.312c-4.763 2.663-7.386 8.444-7.386 16.284a.737.737 0 0 0 .736.736zm-13.594-32.128a7.915 7.915 0 1 1 -7.915 7.915 7.924 7.924 0 0 1 7.915-7.915zm0 14.831a6.915 6.915 0 1 0 -6.915-6.915 6.923 6.923 0 0 0 6.915 6.912zm-5.029 1 .221.132a9.29 9.29 0 0 0 9.617 0l.22-.132.236.1a11.321 11.321 0 0 1 5.904 6.083 22.189 22.189 0 0 1 1.667 8.128l.019.518h-25.711l.019-.519a22.2 22.2 0 0 1 1.667-8.128 11.324 11.324 0 0 1 5.9-6.084zm16.841 13.83c-.251-4.63-1.657-10.366-6.716-12.71a10.285 10.285 0 0 1 -10.192 0c-5.059 2.344-6.466 8.077-6.718 12.71z" fill="#232736" transform="translate(124.23 20.522)"/></svg>