<svg enable-background="new 0 0 261.36 319.68" viewBox="0 0 261.36 319.68" xmlns="http://www.w3.org/2000/svg" xmlns:xlink="http://www.w3.org/1999/xlink"><linearGradient id="a" gradientUnits="userSpaceOnUse" x1="131.9296" x2="137.7667" y1="39.5744" y2="29.4644"><stop offset=".4581" stop-color="#6c20cb"/><stop offset=".8352" stop-color="#5313c1"/></linearGradient><linearGradient id="b" gradientUnits="userSpaceOnUse" x1="84.5184" x2="171.6161" y1="202.4957" y2="51.638"><stop offset="0" stop-color="#2361ef"/><stop offset=".4218" stop-color="#3f80f3"/><stop offset=".8268" stop-color="#31bbf7"/></linearGradient><linearGradient id="c" gradientUnits="userSpaceOnUse" x1="120.3455" x2="149.8562" y1="81.4049" y2="30.2908"><stop offset="0" stop-color="#621cb9"/><stop offset=".5447" stop-color="#5313c1"/></linearGradient><circle cx="134.85" cy="34.52" fill="url(#a)" r="5.84"/><path d="m189.9 64.45-.07-.02-.4-.09c-.38-.08-.97-.19-1.75-.3-1.56-.23-3.87-.46-6.7-.46-4.96 0-11.47.72-18.4 3.4-6.93 2.69-14.32 7.29-21.24 15.33-.44.51-.88 1.01-1.44 1.53-.56.51-1.24 1.1-2.37 1.61-.74.33-1.72.59-2.75.59-.99 0-1.96-.24-2.72-.58s-1.34-.74-1.8-1.12c-.92-.77-1.47-1.46-2.05-2.2-2.64-3.42-7.47-7.95-14.24-11.52-6.78-3.58-15.49-6.27-26.24-6.28-2.87 0-5.9.19-9.07.62l-5.95.8c-9.37 13.5-12.55 31.31-7.32 48.13 9.74 31.29 22.16 71.3 24.79 80.27 8.38 28.53 25.31 20.65 25.31 6.69s3.17-42.04 19.14-42.04c15.26 0 19.14 28.07 19.14 42.04 0 13.96 18.37 16.09 25.31-6.69 2.72-8.95 15.14-48.99 24.85-80.3 5.21-16.78 2.19-34.31-7-47.6z" fill="url(#b)"/><path d="m140.79 46.18c9.59-6.63 26.97-11.34 50.48 10.34 0 0-30.52-7.84-54.14 19.63-1.98 2.3-2.65 2.44-4.52.04-7.15-9.23-25.7-23.18-54.68-19.28 0 0 26.8-28.66 51.39-10.03 3.21 2.44 8.15 1.6 11.47-.7z" fill="url(#c)"/><path d="m24.23 261.29c-1.46 0-2.95-.1-4.47-.31-1.53-.21-2.96-.52-4.29-.94s-2.54-.94-3.61-1.56c-.8-.42-1.35-.96-1.66-1.64s-.42-1.36-.31-2.05c.1-.69.35-1.31.75-1.85s.94-.88 1.64-1.04 1.44-.03 2.24.39c1.46.76 3.02 1.33 4.71 1.72 1.68.38 3.35.57 5.02.57 2.5 0 4.3-.38 5.41-1.14s1.66-1.73 1.66-2.91c0-1.04-.39-1.85-1.17-2.42s-2.12-1.05-4.03-1.43l-5.88-1.25c-3.33-.73-5.79-1.93-7.38-3.61s-2.39-3.89-2.39-6.63c0-1.73.36-3.32 1.07-4.76s1.72-2.67 3.02-3.69 2.87-1.8 4.71-2.34 3.87-.81 6.08-.81c1.91 0 3.8.23 5.67.68s3.54 1.13 4.99 2.03c.66.42 1.12.94 1.38 1.56s.35 1.27.26 1.95-.35 1.25-.78 1.72-.98.77-1.64.91-1.46-.02-2.39-.47c-1.11-.59-2.31-1.01-3.61-1.27s-2.63-.39-3.98-.39c-1.46 0-2.7.19-3.72.57s-1.79.91-2.31 1.59-.78 1.48-.78 2.42c0 .97.36 1.77 1.07 2.39s1.97 1.13 3.77 1.51l5.82 1.25c3.43.73 5.99 1.9 7.67 3.51s2.52 3.74 2.52 6.37c0 1.73-.36 3.3-1.09 4.71-.73 1.4-1.74 2.6-3.04 3.59s-2.86 1.75-4.68 2.29c-1.86.52-3.93.78-6.25.78z" fill="#242837"/><path d="m57.2 261.19c-1.28 0-2.27-.36-2.96-1.07s-1.04-1.72-1.04-3.04v-26.31h-9.15c-1.11 0-1.96-.29-2.55-.88s-.88-1.42-.88-2.5c0-1.04.29-1.85.88-2.42s1.44-.86 2.55-.86h26.42c1.07 0 1.91.29 2.5.86s.88 1.38.88 2.42c0 1.08-.29 1.91-.88 2.5s-1.42.88-2.5.88h-9.2v26.31c0 1.32-.34 2.33-1.01 3.04-.7.71-1.71 1.07-3.06 1.07z" fill="#242837"/><path d="m93.03 261.29c-2.6 0-4.9-.33-6.89-.99s-3.67-1.66-5.02-2.99-2.37-2.99-3.04-4.97c-.68-1.98-1.01-4.26-1.01-6.86v-17.73c0-1.35.35-2.37 1.04-3.04.69-.68 1.68-1.01 2.96-1.01 1.32 0 2.32.34 3.02 1.01.69.68 1.04 1.69 1.04 3.04v17.73c0 2.98.68 5.23 2.03 6.73 1.35 1.51 3.31 2.26 5.88 2.26 2.53 0 4.47-.75 5.82-2.26s2.03-3.75 2.03-6.73v-17.73c0-1.35.35-2.37 1.04-3.04.69-.68 1.7-1.01 3.02-1.01 1.21 0 2.17.34 2.86 1.01.69.68 1.04 1.69 1.04 3.04v17.73c0 3.47-.6 6.38-1.79 8.74s-2.96 4.13-5.3 5.3c-2.36 1.18-5.27 1.77-8.73 1.77z" fill="#242837"/><g fill="#3c8cf4"><path d="m120.17 260.77c-1.35 0-2.39-.36-3.12-1.09s-1.09-1.79-1.09-3.17v-28.13c0-1.39.36-2.44 1.09-3.17s1.77-1.09 3.12-1.09h10.14c6.24 0 11.08 1.59 14.51 4.76s5.15 7.69 5.15 13.55c0 2.91-.44 5.51-1.33 7.8s-2.17 4.21-3.85 5.77-3.73 2.75-6.14 3.56-5.19 1.22-8.35 1.22h-10.13zm3.85-6.6h5.77c1.98 0 3.7-.25 5.17-.75s2.69-1.23 3.67-2.18c.97-.95 1.7-2.17 2.18-3.64s.73-3.2.73-5.17c0-3.95-.97-6.89-2.91-8.81s-4.89-2.89-8.84-2.89h-5.77z"/><path d="m160.42 260.77c-1.35 0-2.39-.36-3.12-1.09s-1.09-1.79-1.09-3.17v-28.13c0-1.39.36-2.44 1.09-3.17s1.77-1.09 3.12-1.09h18.15c1.04 0 1.83.27 2.37.81s.81 1.31.81 2.31c0 1.04-.27 1.83-.81 2.37s-1.33.81-2.37.81h-14.61v8.58h13.47c1.07 0 1.87.27 2.39.81s.78 1.33.78 2.37c0 1.01-.26 1.78-.78 2.31-.52.54-1.32.81-2.39.81h-13.47v9.2h14.61c1.04 0 1.83.27 2.37.81s.81 1.33.81 2.37c0 1.01-.27 1.78-.81 2.31-.54.54-1.33.81-2.37.81h-18.15z"/><path d="m191.41 261.19c-1.21 0-2.14-.32-2.78-.96s-.96-1.59-.96-2.83v-29.7c0-1.32.32-2.31.96-2.99s1.5-1.01 2.57-1.01c.94 0 1.66.17 2.16.52s1.08.92 1.74 1.72l18.25 23.3h-1.46v-21.79c0-1.18.33-2.1.99-2.76s1.61-.99 2.86-.99c1.18 0 2.09.33 2.73.99s.96 1.58.96 2.76v30.06c0 1.14-.29 2.05-.88 2.7-.59.66-1.39.99-2.39.99-.97 0-1.74-.18-2.31-.55s-1.21-.94-1.9-1.74l-18.2-23.3h1.4v21.79c0 1.25-.32 2.19-.96 2.83s-1.57.96-2.78.96z"/><path d="m239.56 261.19c-1.28 0-2.27-.36-2.96-1.07s-1.04-1.72-1.04-3.04v-26.31h-9.15c-1.11 0-1.96-.29-2.55-.88s-.88-1.42-.88-2.5c0-1.04.29-1.85.88-2.42s1.44-.86 2.55-.86h26.42c1.07 0 1.91.29 2.5.86s.88 1.38.88 2.42c0 1.08-.29 1.91-.88 2.5s-1.42.88-2.5.88h-9.2v26.31c0 1.32-.34 2.33-1.01 3.04-.69.71-1.71 1.07-3.06 1.07z"/></g><g fill="#242837"><path d="m110.81 291.03c-1.78 0-3.3-.38-4.56-1.13s-2.24-1.82-2.91-3.21c-.68-1.38-1.01-3.03-1.01-4.95 0-1.44.19-2.72.58-3.86.38-1.14.94-2.1 1.67-2.9s1.62-1.41 2.68-1.85 2.25-.65 3.56-.65c1.06 0 2.07.15 3.03.45s1.79.74 2.49 1.32c.22.17.37.36.45.58.08.21.08.42.03.62s-.16.36-.31.49-.32.19-.53.19-.44-.08-.69-.26c-.62-.5-1.29-.86-2.03-1.1s-1.53-.36-2.38-.36c-1.35 0-2.5.29-3.44.86s-1.65 1.41-2.13 2.5-.72 2.42-.72 3.97.24 2.88.72 3.99c.48 1.1 1.19 1.94 2.13 2.51s2.09.86 3.44.86c.84 0 1.63-.12 2.38-.37s1.44-.62 2.08-1.12c.26-.17.49-.25.69-.24.21.01.38.07.51.19.14.12.23.27.29.46s.06.38 0 .59-.19.38-.4.54c-.72.62-1.56 1.08-2.53 1.4-.96.32-1.99.48-3.09.48z"/><path d="m119.86 290.98c-.27 0-.49-.06-.65-.19s-.26-.3-.28-.51.02-.46.14-.73l7.05-16.05c.15-.34.34-.59.55-.73.21-.15.45-.22.71-.22s.49.07.71.22c.21.14.39.39.53.73l7.08 16.05c.14.27.19.52.17.74-.03.22-.12.39-.27.51s-.37.18-.64.18c-.31 0-.56-.08-.74-.24-.19-.16-.34-.4-.46-.71l-1.9-4.38 1.03.54h-11.03l1.05-.54-1.87 4.38c-.15.33-.32.56-.49.72-.19.15-.41.23-.69.23zm7.49-15.79-4.13 9.72-.62-.49h9.49l-.56.49-4.13-9.72z"/><path d="m139.99 290.98c-.34 0-.6-.1-.78-.29s-.27-.47-.27-.81v-16.08c0-.36.09-.63.28-.81s.45-.27.79-.27h6.08c1.93 0 3.42.45 4.46 1.36s1.56 2.2 1.56 3.87c0 1.06-.24 1.98-.71 2.76s-1.16 1.37-2.06 1.77c-.91.4-1.99.6-3.26.6l.26-.33h.51c.67 0 1.25.17 1.74.51.5.34.95.89 1.36 1.64l2.46 4.59c.14.24.2.47.19.71s-.09.42-.24.56-.38.22-.67.22-.53-.07-.72-.21-.35-.33-.49-.59l-2.79-5.18c-.39-.74-.85-1.23-1.36-1.47s-1.19-.37-2.03-.37h-3.28v6.72c0 .34-.09.61-.26.81s-.41.29-.77.29zm1.05-9.49h4.74c1.4 0 2.46-.29 3.18-.88s1.08-1.47 1.08-2.65c0-1.15-.36-2.01-1.08-2.6s-1.78-.88-3.18-.88h-4.74z"/><path d="m157.25 290.8c-.38 0-.66-.1-.86-.29s-.29-.48-.29-.86v-15.77c0-.38.1-.66.29-.86.2-.2.48-.29.86-.29h9.54c.29 0 .51.08.67.23.15.15.23.37.23.64 0 .29-.08.51-.23.67-.15.15-.38.23-.67.23h-8.64v6.26h8.1c.29 0 .51.07.67.22.15.15.23.36.23.65s-.08.51-.23.67c-.15.15-.38.23-.67.23h-8.1v6.51h8.64c.29 0 .51.08.67.23.15.15.23.37.23.64 0 .29-.08.51-.23.67-.15.15-.38.23-.67.23h-9.54z"/></g></svg>