<svg xmlns="http://www.w3.org/2000/svg" width="39.877" height="43.567" viewBox="0 0 39.877 43.567"><path d="M44.758,17.681A12.531,12.531,0,0,0,33.782,6.8a12.761,12.761,0,0,0-6.441.839,6.391,6.391,0,0,1-4.808,0,12.628,12.628,0,0,0-3.785-.9L16.8,3.369a.739.739,0,0,0-1.279.738l1.506,2.608c-.312.017-.624.042-.936.081A12.726,12.726,0,0,0,7.567,27.082a15.74,15.74,0,0,1,2.987,7.265L11.859,43.5a3.6,3.6,0,0,0,3.546,3.072,4.124,4.124,0,0,0,3.725-2.372l3.324-7.122a2.74,2.74,0,0,1,4.966,0l3.324,7.122a4.124,4.124,0,0,0,3.725,2.372,3.6,3.6,0,0,0,3.547-3.074l1.3-9.139a17.23,17.23,0,0,1,3.2-7.554A12.728,12.728,0,0,0,44.758,17.681Zm-3.444,8.261a18.681,18.681,0,0,0-3.455,8.2l-1.3,9.139a2.116,2.116,0,0,1-2.085,1.806,2.642,2.642,0,0,1-2.387-1.52l-3.324-7.122a4.216,4.216,0,0,0-7.643,0L17.792,43.57a2.642,2.642,0,0,1-2.386,1.52,2.114,2.114,0,0,1-2.085-1.8l-1.306-9.147a17.22,17.22,0,0,0-3.271-7.947A11.249,11.249,0,0,1,16.279,8.262a11.679,11.679,0,0,1,1.591-.09L20.885,13.4a8.58,8.58,0,0,0-2.538.087A8.1,8.1,0,0,0,12.79,25.613a17.712,17.712,0,0,1,2.62,11.661l-.019.133a1.566,1.566,0,0,0,2.992.822c2.765-6.529,5.44-10.052,6.554-10.052S28.726,31.7,31.491,38.23a1.523,1.523,0,0,0,1.416.955,1.673,1.673,0,0,0,.448-.062,1.522,1.522,0,0,0,1.129-1.715l-.019-.133a17.712,17.712,0,0,1,2.62-11.661,8.1,8.1,0,0,0-5.557-12.131,8.392,8.392,0,0,0-4.985.586,3.9,3.9,0,0,1-3.211,0c-.151-.068-.305-.127-.46-.186l-3.2-5.543a11.092,11.092,0,0,1,2.3.662A7.869,7.869,0,0,0,27.9,9,11.249,11.249,0,0,1,41.313,25.942ZM33,37.484l.019.133c.005.038.009.063-.062.082s-.094-.01-.109-.044A42.183,42.183,0,0,0,28.066,28.9l1.329-.767,1.477,2.558a.739.739,0,1,0,1.279-.738l-1.477-2.558,1.6-.923a.739.739,0,1,0-.738-1.279l-1.6.923-1.477-2.558,1.6-.923a.739.739,0,0,0-.738-1.279l-1.6.923-1.477-2.558,1.6-.923a.739.739,0,1,0-.738-1.279l-1.6.923L23.978,15.8a5.383,5.383,0,0,0,3.171-.382,6.926,6.926,0,0,1,4.113-.481,6.625,6.625,0,0,1,4.556,9.919A19.168,19.168,0,0,0,33,37.484ZM14.056,24.853a6.625,6.625,0,0,1,4.556-9.919,6.991,6.991,0,0,1,3.262.174l2.351,4.072-1.6.923a.739.739,0,0,0,.738,1.279l1.6-.923,1.477,2.558-1.6.923a.739.739,0,0,0,.738,1.279l1.6-.923,1.477,2.558-1.6.923-.007.006A3.3,3.3,0,0,0,24.937,26.7c-2.957,0-6.519,7.66-7.914,10.954-.014.035-.03.067-.109.044s-.068-.044-.062-.082l.019-.133a19.168,19.168,0,0,0-2.815-12.63Z" transform="translate(-5 -3)" fill="#242837"/></svg>