<svg height="193.074" viewBox="0 0 193.617 193.074" width="193.617" xmlns="http://www.w3.org/2000/svg" xmlns:xlink="http://www.w3.org/1999/xlink"><linearGradient id="a" gradientUnits="objectBoundingBox" x2=".79" y1=".746" y2=".413"><stop offset="0" stop-color="#3c7df3"/><stop offset=".461" stop-color="#3892f4"/><stop offset="1" stop-color="#31baf7"/></linearGradient><circle cx="54.251" cy="3.569" fill="#4c241d" r="3.569"/><circle cx="76.779" cy="76.779" fill="url(#a)" r="76.779" transform="translate(40.059 6.133)"/><g fill="#242837"><path d="m53.338 71.028a3.338 3.338 0 0 1 -3.338-3.338v-6.677a3.338 3.338 0 0 1 6.676 0v6.677a3.338 3.338 0 0 1 -3.338 3.338z" transform="translate(-36.647 -38.189)"/><path d="m53.338 95.028a3.338 3.338 0 0 1 -3.338-3.338v-6.677a3.338 3.338 0 0 1 6.676 0v6.677a3.338 3.338 0 0 1 -3.338 3.338z" transform="translate(-36.647 -42.16)"/><path d="m44.015 80.351h-6.677a3.338 3.338 0 1 1 0-6.676h6.676a3.338 3.338 0 1 1 0 6.676z" transform="translate(-34 -40.836)"/><path d="m68.015 80.351h-6.677a3.338 3.338 0 1 1 0-6.676h6.676a3.338 3.338 0 1 1 0 6.676z" transform="translate(-37.971 -40.836)"/><path d="m233.684 241.043a11.684 11.684 0 1 1 11.684-11.684 11.7 11.7 0 0 1 -11.684 11.684zm0-16.691a5.007 5.007 0 1 0 5.007 5.007 5.012 5.012 0 0 0 -5.007-5.008z" transform="translate(-65.104 -64.66)"/><circle cx="187.78" cy="113.73" r="3.569"/></g><path d="m198.43 118.164a41.149 41.149 0 0 0 -65.33-28.814 4.343 4.343 0 0 1 -5.137.006 41.221 41.221 0 0 0 -9.451-5.193l-9.712 17.485h-23.365l-5.768 18.36-16.94-2.474-.026.02a41.133 41.133 0 0 0 9.454 31.58 38.641 38.641 0 0 1 6.93 11.519c2.3 6.237 5.118 15.049 5.158 20.956.087 13.041 1.221 30.862 6.359 43.494a11.06 11.06 0 0 0 10.3 6.737 11.237 11.237 0 0 0 11.238-11.24v-36.376c0-9.589 7.011-18.152 16.557-19.063a18.364 18.364 0 0 1 20.164 18.274v37.129a11.275 11.275 0 0 0 11.275 11.275 11.094 11.094 0 0 0 10.335-6.759c5.131-12.63 6.264-30.439 6.351-43.471.039-5.908 2.854-14.72 5.158-20.957a38.635 38.635 0 0 1 6.928-11.516 41.116 41.116 0 0 0 9.522-30.972z" fill="#fff" transform="translate(-38.7 -42.103)"/><path d="m159.474 234.517a14.63 14.63 0 0 1 -14.613-14.617v-37.126a15.058 15.058 0 0 0 -4.921-11.12 14.878 14.878 0 0 0 -11.586-3.831c-7.591.722-13.537 7.636-13.537 15.739v36.378a14.591 14.591 0 0 1 -14.576 14.576 14.309 14.309 0 0 1 -13.393-8.816c-4.255-10.459-6.476-25.507-6.606-44.729-.028-4.212-1.787-11.251-4.951-19.824a35.447 35.447 0 0 0 -6.346-10.515 44.277 44.277 0 0 1 -10.222-34.126 3.333 3.333 0 0 1 1.178-2.176 3.41 3.41 0 0 1 2.646-.759l14.124 2.062 4.916-15.646a3.338 3.338 0 0 1 3.185-2.338h21.4l8.761-15.769a3.332 3.332 0 0 1 4.134-1.486 44.5 44.5 0 0 1 10.215 5.616 1.016 1.016 0 0 0 1.178-.01 44.512 44.512 0 0 1 60.333 64.629 35.465 35.465 0 0 0 -6.346 10.515c-3.164 8.571-4.922 15.61-4.951 19.824-.13 19.208-2.348 34.248-6.6 44.7a14.336 14.336 0 0 1 -13.426 8.841zm-29.681-73.438a21.695 21.695 0 0 1 21.744 21.7v37.121a7.945 7.945 0 0 0 7.937 7.937 7.8 7.8 0 0 0 7.244-4.678c3.871-9.532 5.982-24.137 6.1-42.236.034-5.11 1.839-12.544 5.365-22.092a42.1 42.1 0 0 1 7.513-12.518 37.831 37.831 0 0 0 -51.277-54.939 7.717 7.717 0 0 1 -9.1.005 37.366 37.366 0 0 0 -6.023-3.612l-8.245 14.839a3.336 3.336 0 0 1 -2.918 1.717h-20.91l-5.033 16.026a3.323 3.323 0 0 1 -3.668 2.3l-13.42-1.96a37.533 37.533 0 0 0 8.939 25.625 42.1 42.1 0 0 1 7.513 12.518c3.526 9.548 5.33 16.982 5.365 22.092.122 18.111 2.237 32.724 6.114 42.258a7.762 7.762 0 0 0 7.21 4.657 7.908 7.908 0 0 0 7.9-7.9v-36.375c0-11.506 8.6-21.34 19.579-22.386.69-.066 1.383-.1 2.072-.1z" fill="#242837" transform="translate(-38.038 -41.443)"/><circle cx="111.83" cy="77.905" fill="#242837" r="3.849"/><circle cx="65.095" cy="77.905" fill="#242837" r="3.849"/><path d="m146.113 161.525a3.405 3.405 0 0 1 -.961-.142 3.342 3.342 0 0 1 -2.238-4.158 11.7 11.7 0 0 1 14.551-7.832 3.339 3.339 0 1 1 -1.919 6.4 5.012 5.012 0 0 0 -6.235 3.356 3.344 3.344 0 0 1 -3.2 2.38z" fill="#242837" transform="translate(-51.996 -53.282)"/></svg>