<svg height="40.321" viewBox="0 0 46.5 40.321" width="46.5" xmlns="http://www.w3.org/2000/svg"><g fill="#242837" transform="translate(-1.04 -17.979)"><path d="m13.79 27.043a1.169 1.169 0 1 1 -1.119 1.917 1.19 1.19 0 0 1 1.119-1.917z" transform="translate(-7.153 -5.71)"/><path d="m107.964 37.042a1.465 1.465 0 0 1 1.082 1.785 1.221 1.221 0 0 1 -2.2.131 1.247 1.247 0 0 1 1.118-1.916z" transform="translate(-66.622 -12.011)"/><path d="m44.376 65.29a.909.909 0 0 1 -1.281.3.856.856 0 1 1 1.281-.3z" transform="translate(-26.282 -29.055)"/><path d="m83.448 66.682a.858.858 0 0 1 -1.209.285.808.808 0 1 1 1.209-.285z" transform="translate(-50.989 -29.977)"/><path d="m75.3 76.026a1.036 1.036 0 0 1 -1.461.343.976.976 0 1 1 1.461-.344z" transform="translate(-45.641 -35.716)"/><path d="m45.1 81.852a.831.831 0 0 1 .89-.812.769.769 0 0 1 .753.812.738.738 0 0 1 -.715.846c-.703-.08-.912-.389-.928-.846z" transform="translate(-27.798 -39.779)"/><path d="m51.045 92.106a.567.567 0 0 1 .607-.554.524.524 0 0 1 .513.554.5.5 0 0 1 -.488.577c-.482-.054-.625-.265-.632-.577z" transform="translate(-31.545 -46.412)"/><path d="m52.566 73.581a.567.567 0 0 1 .607-.554.524.524 0 0 1 .513.554.5.5 0 0 1 -.487.577c-.483-.058-.626-.265-.633-.577z" transform="translate(-32.504 -34.726)"/><path d="m76.129 97.9a.567.567 0 0 1 .607-.554.523.523 0 0 1 .513.554.5.5 0 0 1 -.488.576c-.482-.056-.625-.266-.632-.576z" transform="translate(-47.369 -50.066)"/><path d="m79.971 87.064a.566.566 0 0 1 .607-.554.524.524 0 0 1 .514.554.5.5 0 0 1 -.488.577c-.483-.054-.626-.264-.633-.577z" transform="translate(-49.792 -43.231)"/><path d="m38.454 110.7a.549.549 0 0 1 -.268-.069c-.559-.309-1.1-.642-1.615-.989a.554.554 0 1 1 .62-.917c.486.329 1 .644 1.532.937a.554.554 0 0 1 -.269 1.038z" transform="translate(-22.26 -57.186)"/><path d="m27.986 100.417a.549.549 0 0 1 -.355-.129 15.79 15.79 0 0 1 -3.517-4.123.554.554 0 1 1 .956-.56 14.7 14.7 0 0 0 3.273 3.833.554.554 0 0 1 -.356.978z" transform="translate(-14.508 -48.797)"/><path d="m20.3 93.753a.547.547 0 0 1 -.165-.025.554.554 0 0 1 -.364-.694l.258-.831a1.567 1.567 0 0 1 1.782-1.075l.835.154a.554.554 0 1 1 -.2 1.089l-.833-.154a.463.463 0 0 0 -.524.316l-.258.831a.554.554 0 0 1 -.53.389z" transform="translate(-11.799 -46.128)"/><path d="m108.342 72.924a.554.554 0 0 1 -.554-.519c-.029-.461-.044-.923-.044-1.377q0-.258.006-.517a.539.539 0 0 1 .567-.54.554.554 0 0 1 .54.567q-.006.245-.006.49c0 .429.014.869.042 1.307a.554.554 0 0 1 -.517.588h-.035z" transform="translate(-67.313 -32.799)"/><path d="m84.964 110.7a.554.554 0 0 1 -.269-1.038c.53-.3 1.045-.609 1.532-.937a.554.554 0 1 1 .62.917c-.513.347-1.057.68-1.616.989a.549.549 0 0 1 -.268.069z" transform="translate(-52.592 -57.186)"/><path d="m92.321 100.417a.554.554 0 0 1 -.356-.978 14.7 14.7 0 0 0 3.272-3.833.554.554 0 0 1 .956.56 15.79 15.79 0 0 1 -3.517 4.123.549.549 0 0 1 -.355.129z" transform="translate(-57.234 -48.797)"/><path d="m101.971 93.754a.554.554 0 0 1 -.529-.389l-.258-.831a.462.462 0 0 0 -.524-.316l-.835.154a.554.554 0 1 1 -.2-1.089l.835-.153a1.57 1.57 0 0 1 1.782 1.075l.258.831a.554.554 0 0 1 -.364.694.547.547 0 0 1 -.165.025z" transform="translate(-61.905 -46.129)"/><path d="m108.776 58.565a.586.586 0 0 1 -.072 0 .554.554 0 0 1 -.48-.62 15.8 15.8 0 0 1 1.578-5.184.554.554 0 0 1 .986.5 14.7 14.7 0 0 0 -1.465 4.822.554.554 0 0 1 -.547.482z" transform="translate(-67.613 -21.749)"/><path d="m113 50.618a.554.554 0 0 1 -.512-.345l-.321-.786a.462.462 0 0 0 -.549-.271l-.839.229a.554.554 0 1 1 -.292-1.068l.839-.229a1.57 1.57 0 0 1 1.866.923l.32.786a.554.554 0 0 1 -.513.763z" transform="translate(-68.784 -18.996)"/><path d="m44.858 33.213a20.781 20.781 0 0 0 -7.457-.454c1.424-3.916 2-8.1.092-11.367-2.211-3.794-7.367-4.179-11.075-2.359a4.876 4.876 0 0 1 -4.114.074c-.053-.023-.433-.2-.571-.264-3.668-1.6-8.531-1.107-10.661 2.549-1.9 3.266-1.332 7.451.092 11.367a20.747 20.747 0 0 0 -7.442.454 3.7 3.7 0 0 0 -2.682 3.535v17.306a4.25 4.25 0 0 0 4.245 4.246h38.01a4.25 4.25 0 0 0 4.245-4.245v-17.308a3.7 3.7 0 0 0 -2.682-3.534zm-32.829-11.264c1.82-3.123 6.247-3.47 9.418-2.022.072.033.317.152.364.176a5.081 5.081 0 0 1 1.411 1.1 3.011 3.011 0 0 0 2.03 1.115h.055a.554.554 0 0 0 .054-1.1 1.7 1.7 0 0 1 -1.147-.585 5.962 5.962 0 0 0 2.693-.6c3.182-1.563 7.769-1.272 9.63 1.922 2.612 4.481-.045 11.117-2.732 15.9a23.78 23.78 0 0 0 -2.1 6.8c-.725 3.557-1.253 5.722-2.982 5.432-.971-.164-1.344-3.729-1.617-6.331-.416-3.966-.775-7.391-2.822-7.391s-2.405 3.425-2.82 7.39c-.272 2.6-.645 6.167-1.617 6.331-1.724.291-2.256-1.875-2.983-5.431a23.826 23.826 0 0 0 -2.1-6.793c-2.686-4.781-5.343-11.418-2.731-15.9zm34.4 32.105a3.142 3.142 0 0 1 -3.138 3.138h-38.005a3.142 3.142 0 0 1 -3.138-3.138v-17.307a2.592 2.592 0 0 1 1.879-2.47 16.367 16.367 0 0 1 4.467-.55 28.567 28.567 0 0 1 3.114.185 40.577 40.577 0 0 0 2.19 4.476 23.077 23.077 0 0 1 1.982 6.472c.711 3.49 1.381 6.786 4.251 6.3 1.8-.3 2.141-3.55 2.534-7.309.267-2.547.669-6.4 1.719-6.4s1.452 3.85 1.718 6.4c.393 3.758.733 7 2.534 7.309a3.229 3.229 0 0 0 .54.048c2.417 0 3.047-3.091 3.711-6.35a23.126 23.126 0 0 1 1.982-6.472 40.628 40.628 0 0 0 2.185-4.473 20.364 20.364 0 0 1 7.6.363 2.592 2.592 0 0 1 1.879 2.469z"/><path d="m42.05 59.145a8.568 8.568 0 0 1 -.948-.054.554.554 0 1 1 .123-1.1 7.315 7.315 0 0 0 1.37.027.554.554 0 1 1 .084 1.1c-.21.018-.419.027-.629.027zm2.043-.248a.554.554 0 0 1 -.12-1.094c.413-.092.852-.211 1.383-.374a.554.554 0 1 1 .325 1.059c-.559.172-1.025.3-1.467.4a.543.543 0 0 1 -.121.013zm-4.381-.069a.568.568 0 0 1 -.133-.016c-.429-.106-.892-.238-1.455-.417a.554.554 0 1 1 .335-1.056c.539.171.979.3 1.385.4a.554.554 0 0 1 -.132 1.092zm7.211-.771a.554.554 0 0 1 -.173-1.08c.457-.151.944-.31 1.428-.45a.554.554 0 1 1 .308 1.064c-.467.135-.942.291-1.39.438a.546.546 0 0 1 -.173.028zm-10.035-.095a.56.56 0 0 1 -.172-.027c-.412-.135-.9-.291-1.386-.424a.554.554 0 1 1 .292-1.068c.511.14 1.013.3 1.44.439a.554.554 0 0 1 -.172 1.08zm-7.128-.022a.554.554 0 0 1 -.281-1.031 6.575 6.575 0 0 1 1.477-.642.554.554 0 0 1 .311 1.063 5.459 5.459 0 0 0 -1.226.534.55.55 0 0 1 -.281.076zm24.317-.148a.55.55 0 0 1 -.258-.064 5.319 5.319 0 0 0 -1.247-.468.554.554 0 1 1 .255-1.078 6.444 6.444 0 0 1 1.508.567.554.554 0 0 1 -.258 1.044zm-4.311-.528a.554.554 0 0 1 -.1-1.1 8.882 8.882 0 0 1 1.563-.158.554.554 0 1 1 .007 1.107 7.831 7.831 0 0 0 -1.37.139.554.554 0 0 1 -.1.009zm-15.732-.051a.546.546 0 0 1 -.085-.006 7.129 7.129 0 0 0 -1.366-.087.554.554 0 0 1 -.04-1.107 8.225 8.225 0 0 1 1.575.1.554.554 0 0 1 -.083 1.1z" transform="translate(-17.768 -23.99)"/><path d="m17.689 72.925h-.037a.554.554 0 0 1 -.517-.588c.028-.438.042-.878.042-1.307q0-.245-.006-.49a.554.554 0 0 1 .541-.568.547.547 0 0 1 .567.54q.007.258.006.517c0 .453-.015.916-.044 1.377a.554.554 0 0 1 -.553.519z" transform="translate(-10.153 -32.799)"/><path d="m14.728 58.566a.554.554 0 0 1 -.548-.482 14.7 14.7 0 0 0 -1.466-4.822.554.554 0 0 1 .986-.5 15.8 15.8 0 0 1 1.578 5.184.554.554 0 0 1 -.48.62.587.587 0 0 1 -.07 0z" transform="translate(-7.326 -21.749)"/><path d="m9.067 50.618a.554.554 0 0 1 -.513-.763l.32-.786a1.569 1.569 0 0 1 1.866-.921l.839.229a.554.554 0 1 1 -.292 1.068l-.839-.229a.462.462 0 0 0 -.549.271l-.322.786a.554.554 0 0 1 -.51.345z" transform="translate(-4.714 -18.996)"/></g></svg>