<svg height="186.009" viewBox="0 0 192 186.009" width="192" xmlns="http://www.w3.org/2000/svg" xmlns:xlink="http://www.w3.org/1999/xlink"><linearGradient id="a" gradientUnits="objectBoundingBox" x2=".784" y1=".813" y2=".283"><stop offset="0" stop-color="#3c7df3"/><stop offset=".461" stop-color="#3892f4"/><stop offset="1" stop-color="#31baf7"/></linearGradient><circle cx="39.245" cy="4.157" fill="#242837" r="3.424"/><ellipse cx="73.5" cy="74" fill="url(#a)" rx="73.5" ry="74" transform="translate(45)"/><g fill="#242837"><path d="m51.2 90.814a3.2 3.2 0 0 1 -3.2-3.2v-6.414a3.2 3.2 0 0 1 6.407 0v6.41a3.2 3.2 0 0 1 -3.207 3.204z" transform="translate(-35.186 -42.551)"/><path d="m51.2 114.814a3.2 3.2 0 0 1 -3.2-3.2v-6.414a3.2 3.2 0 0 1 6.407 0v6.407a3.2 3.2 0 0 1 -3.207 3.207z" transform="translate(-35.186 -47.331)"/><path d="m41.61 100.407h-6.41a3.2 3.2 0 0 1 0-6.407h6.41a3.2 3.2 0 0 1 0 6.407z" transform="translate(-32 -45.737)"/><path d="m65.61 100.407h-6.41a3.2 3.2 0 0 1 0-6.407h6.41a3.2 3.2 0 0 1 0 6.407z" transform="translate(-36.78 -45.737)"/><path d="m247.212 184.424a11.212 11.212 0 1 1 11.212-11.212 11.225 11.225 0 0 1 -11.212 11.212zm0-16.017a4.805 4.805 0 1 0 4.805 4.805 4.81 4.81 0 0 0 -4.805-4.805z" transform="translate(-72.626 -59.28)"/><circle cx="183.398" cy="52.208" r="3.424"/></g><path d="m204.136 245.271h-128.136v-25.71a41.56 41.56 0 0 1 41.561-41.561h45.015a41.56 41.56 0 0 1 41.56 41.561z" fill="#f3f3f3" transform="translate(-40.763 -62.467)"/><path d="m203.34 247.678h-128.14a3.2 3.2 0 0 1 -3.2-3.2v-25.71a44.814 44.814 0 0 1 44.764-44.768h45.013a44.814 44.814 0 0 1 44.765 44.764v25.71a3.2 3.2 0 0 1 -3.202 3.204zm-124.933-6.407h121.729v-22.507a38.4 38.4 0 0 0 -38.358-38.358h-45.013a38.4 38.4 0 0 0 -38.358 38.358z" fill="#242837" transform="translate(-39.966 -61.67)"/><path d="m152.009 182.034a8.008 8.008 0 0 1 -8.009-8.008v-24.026h16.017v24.026a8.008 8.008 0 0 1 -8.008 8.008z" fill="#ffe8dc" transform="translate(-54.305 -56.89)"/><path d="m151.212 184.441a11.225 11.225 0 0 1 -11.212-11.212v-24.029a3.2 3.2 0 0 1 3.2-3.2h16.02a3.2 3.2 0 0 1 3.2 3.2v24.026a11.225 11.225 0 0 1 -11.208 11.215zm-4.805-32.034v20.822a4.805 4.805 0 0 0 9.61 0v-20.822z" fill="#242837" transform="translate(-53.508 -56.093)"/><path d="m145.636 149.271a33.636 33.636 0 0 1 -33.636-33.635v-33.636h67.271v33.636a33.636 33.636 0 0 1 -33.635 33.635z" fill="#ffe8dc" transform="translate(-47.932 -43.348)"/><path d="m144.839 151.678a36.88 36.88 0 0 1 -36.839-36.839v-33.639a3.2 3.2 0 0 1 3.2-3.2h67.271a3.2 3.2 0 0 1 3.2 3.2v33.636a36.88 36.88 0 0 1 -36.832 36.842zm-30.432-67.271v30.432a30.432 30.432 0 1 0 60.865 0v-30.432z" fill="#242837" transform="translate(-47.135 -42.551)"/><path d="m204.009 122.017h-8.009v-16.017h8.009a8.009 8.009 0 0 1 0 16.017z" fill="#ffe8dc" transform="translate(-64.661 -48.128)"/><path d="m203.212 124.424h-8.012a3.2 3.2 0 0 1 -3.2-3.2v-16.024a3.2 3.2 0 0 1 3.2-3.2h8.009a11.212 11.212 0 0 1 0 22.424zm-4.805-6.407h4.805a4.805 4.805 0 0 0 0-9.61h-4.805z" fill="#242837" transform="translate(-63.864 -47.331)"/><path d="m100.009 106h8.009v16.017h-8.009a8.009 8.009 0 0 1 0-16.017z" fill="#ffe8dc" transform="translate(-43.949 -48.128)"/><path d="m107.22 124.424h-8.008a11.212 11.212 0 1 1 0-22.424h8.008a3.2 3.2 0 0 1 3.2 3.2v16.02a3.2 3.2 0 0 1 -3.2 3.204zm-8.008-16.017a4.805 4.805 0 0 0 0 9.61h4.805v-9.61z" fill="#242837" transform="translate(-43.152 -47.331)"/><path d="m179.271 82.848h-67.271v-29.478a15.369 15.369 0 0 1 15.37-15.37h36.53a15.369 15.369 0 0 1 15.37 15.37z" fill="#f3f3f3" transform="translate(-47.932 -34.586)"/><path d="m178.475 85.254h-67.275a3.2 3.2 0 0 1 -3.2-3.2v-29.481a18.594 18.594 0 0 1 18.573-18.573h36.527a18.594 18.594 0 0 1 18.573 18.573v29.478a3.2 3.2 0 0 1 -3.198 3.203zm-64.068-6.407h60.865v-26.274a12.179 12.179 0 0 0 -12.166-12.166h-36.533a12.179 12.179 0 0 0 -12.167 12.166z" fill="#242837" transform="translate(-47.135 -33.789)"/><path d="m112 78h67.271v12.814h-67.271z" fill="#fff" transform="translate(-47.932 -42.552)"/><path d="m178.475 93.22h-67.275a3.2 3.2 0 0 1 -3.2-3.2v-12.82a3.2 3.2 0 0 1 3.2-3.2h67.271a3.2 3.2 0 0 1 3.2 3.2v12.817a3.2 3.2 0 0 1 -3.196 3.203zm-64.068-6.407h60.865v-6.406h-60.865z" fill="#242837" transform="translate(-47.135 -41.755)"/><circle cx="97.704" cy="46.661" fill="#fff" r="10.01"/><path d="m150.714 101.927a13.212 13.212 0 1 1 13.212-13.212 13.226 13.226 0 0 1 -13.212 13.212zm0-20.018a6.806 6.806 0 1 0 6.806 6.806 6.813 6.813 0 0 0 -6.806-6.806z" fill="#242837" transform="translate(-53.011 -42.054)"/><path d="m207.2 256.441a3.2 3.2 0 0 1 -3.2-3.2v-32.041a3.2 3.2 0 1 1 6.407 0v32.034a3.2 3.2 0 0 1 -3.207 3.207z" fill="#242837" transform="translate(-66.254 -70.432)"/><path d="m103.2 256.441a3.2 3.2 0 0 1 -3.2-3.2v-32.041a3.2 3.2 0 0 1 6.407 0v32.034a3.2 3.2 0 0 1 -3.207 3.207z" fill="#242837" transform="translate(-45.542 -70.432)"/><path d="m149.163 134h-4.116a45.228 45.228 0 0 0 -18.368 3.9l-9.528 4.235a33.62 33.62 0 0 0 59.361-.678l-10.551-4.22a45.232 45.232 0 0 0 -16.8-3.235z" fill="#fff" transform="translate(-48.958 -53.704)"/><path d="m145.865 162.034a36.85 36.85 0 0 1 -32.318-19.16 3.2 3.2 0 0 1 1.508-4.466l9.527-4.234a48.127 48.127 0 0 1 19.67-4.174h4.117a48.238 48.238 0 0 1 17.986 3.463l10.552 4.22a3.205 3.205 0 0 1 1.654 4.451 36.735 36.735 0 0 1 -32.7 19.9zm-24.843-19.268a30.409 30.409 0 0 0 50.031-.522l-7.08-2.831a41.8 41.8 0 0 0 -15.605-3.006h-4.117a41.746 41.746 0 0 0 -17.067 3.622z" fill="#242837" transform="translate(-48.162 -52.907)"/><circle cx="110.517" cy="69.084" fill="#242837" r="2.436"/><circle cx="84.89" cy="69.084" fill="#242837" r="2.436"/><path d="m176 222h25.627v16.017h-25.627z" fill="#fff" transform="translate(-60.678 -71.229)"/><path d="m200.831 240.424h-25.631a3.2 3.2 0 0 1 -3.2-3.2v-16.024a3.2 3.2 0 0 1 3.2-3.2h25.627a3.2 3.2 0 0 1 3.2 3.2v16.02a3.2 3.2 0 0 1 -3.196 3.204zm-22.424-6.407h19.22v-9.61h-19.22z" fill="#242837" transform="translate(-59.881 -70.432)"/></svg>