<svg version="1.2" xmlns="http://www.w3.org/2000/svg" viewBox="0 0 683 683" width="683" height="683">
	<title>treatment-svg</title>
	<defs>
		<clipPath clipPathUnits="userSpaceOnUse" id="cp1">
			<path d="m0 0h682.67v682.67h-682.67z"/>
		</clipPath>
	</defs>
	<style>
		.s0 { fill: none;stroke: #000000;stroke-linecap: round;stroke-linejoin: round;stroke-width: 60 } 
	</style>
	<g id="Clip-Path" clip-path="url(#cp1)">
		<g id="Layer">
			<path id="Layer" class="s0" d="m52.1 140.5c-23.7 31-38 69.5-38.7 111.3-0.4 23.8 3.6 46.7 11.2 67.9v-0.1l94.8 276.1c9.5 27.8 35.7 46.5 65.1 46.5 31.9 0 59.6-21.8 67-52.8l35.4-147.3c5.2-22.1 36.6-22.1 41.8 0l35.4 147.3c7.4 31 35.1 52.8 67 52.8 29.4 0 55.6-18.7 65.1-46.5l94.8-276.1v0.1q3.6-9.9 6-20.3c1.4-5.6-2.1-11.3-7.7-12.7-41.2-10.4-72.2-44.4-79.1-86-38.1-7.1-65.7-41.8-62.9-81.4 0.9-12.4 4.6-24 10.6-34 3.8-6.3 0.3-14.5-6.9-16-12.2-2.5-24.8-3.9-37.7-3.9-39-0.2-75.3 11.5-105.5 31.5-30.2-20-66.5-31.7-105.5-31.5-18.3 0-36 2.7-52.7 7.7"/>
			<path id="Layer" class="s0" d="m307.8 96.9c11.6 7.7 22.2 16.6 31.8 26.5"/>
			<path id="Layer" class="s0" d="m603.6 121l54.2-44"/>
			<path id="Layer" class="s0" d="m536.1 74.8l3.5-34.4"/>
			<path id="Layer" class="s0" d="m669.3 200.3l-34.1-3.5"/>
		</g>
	</g>
</svg>